G04 EAGLE Gerber RS-274X export*
G75*
%MOMM*%
%FSLAX34Y34*%
%LPD*%
%INCopper Layer 15*%
%IPPOS*%
%AMOC8*
5,1,8,0,0,1.08239X$1,22.5*%
G01*
%ADD10C,1.244600*%
%ADD11C,1.400000*%
%ADD12C,1.960000*%
%ADD13C,3.500000*%
%ADD14C,4.191000*%
%ADD15C,0.654800*%

G36*
X1219318Y-77454D02*
X1219318Y-77454D01*
X1219437Y-77447D01*
X1219475Y-77434D01*
X1219516Y-77429D01*
X1219626Y-77386D01*
X1219739Y-77349D01*
X1219774Y-77327D01*
X1219811Y-77312D01*
X1219907Y-77243D01*
X1220008Y-77179D01*
X1220036Y-77149D01*
X1220069Y-77126D01*
X1220145Y-77034D01*
X1220226Y-76947D01*
X1220246Y-76912D01*
X1220271Y-76881D01*
X1220322Y-76773D01*
X1220380Y-76669D01*
X1220390Y-76629D01*
X1220407Y-76593D01*
X1220429Y-76476D01*
X1220459Y-76361D01*
X1220463Y-76301D01*
X1220467Y-76281D01*
X1220465Y-76260D01*
X1220469Y-76200D01*
X1220469Y838200D01*
X1220454Y838318D01*
X1220447Y838437D01*
X1220434Y838475D01*
X1220429Y838516D01*
X1220386Y838626D01*
X1220349Y838739D01*
X1220327Y838774D01*
X1220312Y838811D01*
X1220243Y838907D01*
X1220179Y839008D01*
X1220149Y839036D01*
X1220126Y839069D01*
X1220034Y839145D01*
X1219947Y839226D01*
X1219912Y839246D01*
X1219881Y839271D01*
X1219773Y839322D01*
X1219669Y839380D01*
X1219629Y839390D01*
X1219593Y839407D01*
X1219476Y839429D01*
X1219361Y839459D01*
X1219301Y839463D01*
X1219281Y839467D01*
X1219260Y839465D01*
X1219200Y839469D01*
X-76200Y839469D01*
X-76318Y839454D01*
X-76437Y839447D01*
X-76475Y839434D01*
X-76516Y839429D01*
X-76626Y839386D01*
X-76739Y839349D01*
X-76774Y839327D01*
X-76811Y839312D01*
X-76907Y839243D01*
X-77008Y839179D01*
X-77036Y839149D01*
X-77069Y839126D01*
X-77145Y839034D01*
X-77226Y838947D01*
X-77246Y838912D01*
X-77271Y838881D01*
X-77322Y838773D01*
X-77380Y838669D01*
X-77390Y838629D01*
X-77407Y838593D01*
X-77429Y838476D01*
X-77459Y838361D01*
X-77463Y838301D01*
X-77467Y838281D01*
X-77465Y838260D01*
X-77469Y838200D01*
X-77469Y-76200D01*
X-77454Y-76318D01*
X-77447Y-76437D01*
X-77434Y-76475D01*
X-77429Y-76516D01*
X-77386Y-76626D01*
X-77349Y-76739D01*
X-77327Y-76774D01*
X-77312Y-76811D01*
X-77243Y-76907D01*
X-77179Y-77008D01*
X-77149Y-77036D01*
X-77126Y-77069D01*
X-77034Y-77145D01*
X-76947Y-77226D01*
X-76912Y-77246D01*
X-76881Y-77271D01*
X-76773Y-77322D01*
X-76669Y-77380D01*
X-76629Y-77390D01*
X-76593Y-77407D01*
X-76476Y-77429D01*
X-76361Y-77459D01*
X-76301Y-77463D01*
X-76281Y-77467D01*
X-76260Y-77465D01*
X-76200Y-77469D01*
X1219200Y-77469D01*
X1219318Y-77454D01*
G37*
%LPC*%
G36*
X-1052Y-2541D02*
X-1052Y-2541D01*
X-2541Y-1052D01*
X-2541Y763052D01*
X-1052Y764541D01*
X1144052Y764541D01*
X1145541Y763052D01*
X1145541Y-1052D01*
X1144052Y-2541D01*
X-1052Y-2541D01*
G37*
%LPD*%
G36*
X1139308Y2556D02*
X1139308Y2556D01*
X1139427Y2563D01*
X1139465Y2576D01*
X1139506Y2581D01*
X1139616Y2624D01*
X1139729Y2661D01*
X1139764Y2683D01*
X1139801Y2698D01*
X1139897Y2767D01*
X1139998Y2831D01*
X1140026Y2861D01*
X1140059Y2884D01*
X1140135Y2976D01*
X1140216Y3063D01*
X1140236Y3098D01*
X1140261Y3129D01*
X1140312Y3237D01*
X1140370Y3341D01*
X1140380Y3381D01*
X1140397Y3417D01*
X1140419Y3534D01*
X1140449Y3649D01*
X1140453Y3709D01*
X1140457Y3729D01*
X1140455Y3750D01*
X1140459Y3810D01*
X1140459Y758190D01*
X1140444Y758308D01*
X1140437Y758427D01*
X1140424Y758465D01*
X1140419Y758506D01*
X1140376Y758616D01*
X1140339Y758729D01*
X1140317Y758764D01*
X1140302Y758801D01*
X1140233Y758897D01*
X1140169Y758998D01*
X1140139Y759026D01*
X1140116Y759059D01*
X1140024Y759135D01*
X1139937Y759216D01*
X1139902Y759236D01*
X1139871Y759261D01*
X1139763Y759312D01*
X1139659Y759370D01*
X1139619Y759380D01*
X1139583Y759397D01*
X1139466Y759419D01*
X1139351Y759449D01*
X1139291Y759453D01*
X1139271Y759457D01*
X1139250Y759455D01*
X1139190Y759459D01*
X3810Y759459D01*
X3692Y759444D01*
X3573Y759437D01*
X3535Y759424D01*
X3494Y759419D01*
X3384Y759376D01*
X3271Y759339D01*
X3236Y759317D01*
X3199Y759302D01*
X3103Y759233D01*
X3002Y759169D01*
X2974Y759139D01*
X2941Y759116D01*
X2865Y759024D01*
X2784Y758937D01*
X2764Y758902D01*
X2739Y758871D01*
X2688Y758763D01*
X2630Y758659D01*
X2620Y758619D01*
X2603Y758583D01*
X2581Y758466D01*
X2551Y758351D01*
X2547Y758291D01*
X2543Y758271D01*
X2545Y758250D01*
X2541Y758190D01*
X2541Y3810D01*
X2556Y3692D01*
X2563Y3573D01*
X2576Y3535D01*
X2581Y3494D01*
X2624Y3384D01*
X2661Y3271D01*
X2683Y3236D01*
X2698Y3199D01*
X2767Y3103D01*
X2831Y3002D01*
X2861Y2974D01*
X2884Y2941D01*
X2976Y2865D01*
X3063Y2784D01*
X3098Y2764D01*
X3129Y2739D01*
X3237Y2688D01*
X3341Y2630D01*
X3381Y2620D01*
X3417Y2603D01*
X3534Y2581D01*
X3649Y2551D01*
X3709Y2547D01*
X3729Y2543D01*
X3750Y2545D01*
X3810Y2541D01*
X1139190Y2541D01*
X1139308Y2556D01*
G37*
%LPC*%
G36*
X1087526Y687704D02*
X1087526Y687704D01*
X1078891Y691281D01*
X1072281Y697891D01*
X1068704Y706526D01*
X1068704Y715874D01*
X1072281Y724509D01*
X1078891Y731119D01*
X1087526Y734696D01*
X1096874Y734696D01*
X1105509Y731119D01*
X1112119Y724509D01*
X1115696Y715874D01*
X1115696Y706526D01*
X1112119Y697891D01*
X1105509Y691281D01*
X1096874Y687704D01*
X1087526Y687704D01*
G37*
%LPD*%
%LPC*%
G36*
X46126Y687704D02*
X46126Y687704D01*
X37491Y691281D01*
X30881Y697891D01*
X27304Y706526D01*
X27304Y715874D01*
X30881Y724509D01*
X37491Y731119D01*
X46126Y734696D01*
X55474Y734696D01*
X64109Y731119D01*
X70719Y724509D01*
X74296Y715874D01*
X74296Y706526D01*
X70719Y697891D01*
X64109Y691281D01*
X55474Y687704D01*
X46126Y687704D01*
G37*
%LPD*%
%LPC*%
G36*
X46126Y27304D02*
X46126Y27304D01*
X37491Y30881D01*
X30881Y37491D01*
X27304Y46126D01*
X27304Y55474D01*
X30881Y64109D01*
X37491Y70719D01*
X46126Y74296D01*
X55474Y74296D01*
X64109Y70719D01*
X70719Y64109D01*
X74296Y55474D01*
X74296Y46126D01*
X70719Y37491D01*
X64109Y30881D01*
X55474Y27304D01*
X46126Y27304D01*
G37*
%LPD*%
%LPC*%
G36*
X1087526Y27304D02*
X1087526Y27304D01*
X1078891Y30881D01*
X1072281Y37491D01*
X1068704Y46126D01*
X1068704Y55474D01*
X1072281Y64109D01*
X1078891Y70719D01*
X1087526Y74296D01*
X1096874Y74296D01*
X1105509Y70719D01*
X1112119Y64109D01*
X1115696Y55474D01*
X1115696Y46126D01*
X1112119Y37491D01*
X1105509Y30881D01*
X1096874Y27304D01*
X1087526Y27304D01*
G37*
%LPD*%
%LPC*%
G36*
X1006014Y655659D02*
X1006014Y655659D01*
X998648Y658710D01*
X993010Y664348D01*
X989959Y671714D01*
X989959Y679686D01*
X993010Y687052D01*
X998648Y692690D01*
X1006014Y695741D01*
X1013986Y695741D01*
X1021352Y692690D01*
X1026990Y687052D01*
X1030041Y679686D01*
X1030041Y671714D01*
X1026990Y664348D01*
X1021352Y658710D01*
X1013986Y655659D01*
X1006014Y655659D01*
G37*
%LPD*%
%LPC*%
G36*
X256014Y655659D02*
X256014Y655659D01*
X248648Y658710D01*
X243010Y664348D01*
X239959Y671714D01*
X239959Y679686D01*
X243010Y687052D01*
X248648Y692690D01*
X256014Y695741D01*
X263986Y695741D01*
X271352Y692690D01*
X276990Y687052D01*
X280041Y679686D01*
X280041Y671714D01*
X276990Y664348D01*
X271352Y658710D01*
X263986Y655659D01*
X256014Y655659D01*
G37*
%LPD*%
%LPC*%
G36*
X256014Y345659D02*
X256014Y345659D01*
X248648Y348710D01*
X243010Y354348D01*
X239959Y361714D01*
X239959Y369686D01*
X243010Y377052D01*
X248648Y382690D01*
X256014Y385741D01*
X263986Y385741D01*
X271352Y382690D01*
X276990Y377052D01*
X280041Y369686D01*
X280041Y361714D01*
X276990Y354348D01*
X271352Y348710D01*
X263986Y345659D01*
X256014Y345659D01*
G37*
%LPD*%
%LPC*%
G36*
X1006014Y345659D02*
X1006014Y345659D01*
X998648Y348710D01*
X993010Y354348D01*
X989959Y361714D01*
X989959Y369686D01*
X993010Y377052D01*
X998648Y382690D01*
X1006014Y385741D01*
X1013986Y385741D01*
X1021352Y382690D01*
X1026990Y377052D01*
X1030041Y369686D01*
X1030041Y361714D01*
X1026990Y354348D01*
X1021352Y348710D01*
X1013986Y345659D01*
X1006014Y345659D01*
G37*
%LPD*%
%LPC*%
G36*
X186708Y499459D02*
X186708Y499459D01*
X181180Y501749D01*
X176949Y505980D01*
X174659Y511508D01*
X174659Y517492D01*
X176949Y523020D01*
X181180Y527251D01*
X186708Y529541D01*
X192692Y529541D01*
X198220Y527251D01*
X202451Y523020D01*
X204741Y517492D01*
X204741Y511508D01*
X202451Y505980D01*
X198220Y501749D01*
X192692Y499459D01*
X186708Y499459D01*
G37*
%LPD*%
%LPC*%
G36*
X86708Y499459D02*
X86708Y499459D01*
X81180Y501749D01*
X76949Y505980D01*
X74659Y511508D01*
X74659Y517492D01*
X76949Y523020D01*
X81180Y527251D01*
X86708Y529541D01*
X92692Y529541D01*
X98220Y527251D01*
X102451Y523020D01*
X104741Y517492D01*
X104741Y511508D01*
X102451Y505980D01*
X98220Y501749D01*
X92692Y499459D01*
X86708Y499459D01*
G37*
%LPD*%
%LPC*%
G36*
X555345Y203159D02*
X555345Y203159D01*
X550810Y205038D01*
X547338Y208510D01*
X545459Y213045D01*
X545459Y217955D01*
X547338Y222490D01*
X550810Y225962D01*
X555345Y227841D01*
X560255Y227841D01*
X564790Y225962D01*
X568262Y222490D01*
X570141Y217955D01*
X570141Y213045D01*
X568262Y208510D01*
X564790Y205038D01*
X560255Y203159D01*
X555345Y203159D01*
G37*
%LPD*%
%LPC*%
G36*
X430345Y203159D02*
X430345Y203159D01*
X425810Y205038D01*
X422338Y208510D01*
X420459Y213045D01*
X420459Y217955D01*
X422338Y222490D01*
X425810Y225962D01*
X430345Y227841D01*
X435255Y227841D01*
X439790Y225962D01*
X443262Y222490D01*
X445141Y217955D01*
X445141Y213045D01*
X443262Y208510D01*
X439790Y205038D01*
X435255Y203159D01*
X430345Y203159D01*
G37*
%LPD*%
%LPC*%
G36*
X352145Y203159D02*
X352145Y203159D01*
X347610Y205038D01*
X344138Y208510D01*
X342259Y213045D01*
X342259Y217955D01*
X344138Y222490D01*
X347610Y225962D01*
X352145Y227841D01*
X357055Y227841D01*
X361590Y225962D01*
X365062Y222490D01*
X366941Y217955D01*
X366941Y213045D01*
X365062Y208510D01*
X361590Y205038D01*
X357055Y203159D01*
X352145Y203159D01*
G37*
%LPD*%
%LPC*%
G36*
X227145Y203159D02*
X227145Y203159D01*
X222610Y205038D01*
X219138Y208510D01*
X217259Y213045D01*
X217259Y217955D01*
X219138Y222490D01*
X222610Y225962D01*
X227145Y227841D01*
X232055Y227841D01*
X236590Y225962D01*
X240062Y222490D01*
X241941Y217955D01*
X241941Y213045D01*
X240062Y208510D01*
X236590Y205038D01*
X232055Y203159D01*
X227145Y203159D01*
G37*
%LPD*%
%LPC*%
G36*
X555345Y153159D02*
X555345Y153159D01*
X550810Y155038D01*
X547338Y158510D01*
X545459Y163045D01*
X545459Y167955D01*
X547338Y172490D01*
X550810Y175962D01*
X555345Y177841D01*
X560255Y177841D01*
X564790Y175962D01*
X568262Y172490D01*
X570141Y167955D01*
X570141Y163045D01*
X568262Y158510D01*
X564790Y155038D01*
X560255Y153159D01*
X555345Y153159D01*
G37*
%LPD*%
%LPC*%
G36*
X430345Y153159D02*
X430345Y153159D01*
X425810Y155038D01*
X422338Y158510D01*
X420459Y163045D01*
X420459Y167955D01*
X422338Y172490D01*
X425810Y175962D01*
X430345Y177841D01*
X435255Y177841D01*
X439790Y175962D01*
X443262Y172490D01*
X445141Y167955D01*
X445141Y163045D01*
X443262Y158510D01*
X439790Y155038D01*
X435255Y153159D01*
X430345Y153159D01*
G37*
%LPD*%
%LPC*%
G36*
X352145Y153159D02*
X352145Y153159D01*
X347610Y155038D01*
X344138Y158510D01*
X342259Y163045D01*
X342259Y167955D01*
X344138Y172490D01*
X347610Y175962D01*
X352145Y177841D01*
X357055Y177841D01*
X361590Y175962D01*
X365062Y172490D01*
X366941Y167955D01*
X366941Y163045D01*
X365062Y158510D01*
X361590Y155038D01*
X357055Y153159D01*
X352145Y153159D01*
G37*
%LPD*%
%LPC*%
G36*
X227145Y153159D02*
X227145Y153159D01*
X222610Y155038D01*
X219138Y158510D01*
X217259Y163045D01*
X217259Y167955D01*
X219138Y172490D01*
X222610Y175962D01*
X227145Y177841D01*
X232055Y177841D01*
X236590Y175962D01*
X240062Y172490D01*
X241941Y167955D01*
X241941Y163045D01*
X240062Y158510D01*
X236590Y155038D01*
X232055Y153159D01*
X227145Y153159D01*
G37*
%LPD*%
%LPC*%
G36*
X389302Y671159D02*
X389302Y671159D01*
X385796Y672612D01*
X383112Y675296D01*
X381659Y678802D01*
X381659Y682598D01*
X383112Y686104D01*
X385796Y688788D01*
X389302Y690241D01*
X393098Y690241D01*
X396604Y688788D01*
X399288Y686104D01*
X400741Y682598D01*
X400741Y678802D01*
X399288Y675296D01*
X396604Y672612D01*
X393098Y671159D01*
X389302Y671159D01*
G37*
%LPD*%
%LPC*%
G36*
X363902Y671159D02*
X363902Y671159D01*
X360396Y672612D01*
X357712Y675296D01*
X356259Y678802D01*
X356259Y682598D01*
X357712Y686104D01*
X360396Y688788D01*
X363902Y690241D01*
X367698Y690241D01*
X371204Y688788D01*
X373888Y686104D01*
X375341Y682598D01*
X375341Y678802D01*
X373888Y675296D01*
X371204Y672612D01*
X367698Y671159D01*
X363902Y671159D01*
G37*
%LPD*%
%LPC*%
G36*
X338502Y671159D02*
X338502Y671159D01*
X334996Y672612D01*
X332312Y675296D01*
X330859Y678802D01*
X330859Y682598D01*
X332312Y686104D01*
X334996Y688788D01*
X338502Y690241D01*
X342298Y690241D01*
X345804Y688788D01*
X348488Y686104D01*
X349941Y682598D01*
X349941Y678802D01*
X348488Y675296D01*
X345804Y672612D01*
X342298Y671159D01*
X338502Y671159D01*
G37*
%LPD*%
%LPC*%
G36*
X313102Y671159D02*
X313102Y671159D01*
X309596Y672612D01*
X306912Y675296D01*
X305459Y678802D01*
X305459Y682598D01*
X306912Y686104D01*
X309596Y688788D01*
X313102Y690241D01*
X316898Y690241D01*
X320404Y688788D01*
X323088Y686104D01*
X324541Y682598D01*
X324541Y678802D01*
X323088Y675296D01*
X320404Y672612D01*
X316898Y671159D01*
X313102Y671159D01*
G37*
%LPD*%
%LPC*%
G36*
X694102Y671159D02*
X694102Y671159D01*
X690596Y672612D01*
X687912Y675296D01*
X686459Y678802D01*
X686459Y682598D01*
X687912Y686104D01*
X690596Y688788D01*
X694102Y690241D01*
X697898Y690241D01*
X701404Y688788D01*
X704088Y686104D01*
X705541Y682598D01*
X705541Y678802D01*
X704088Y675296D01*
X701404Y672612D01*
X697898Y671159D01*
X694102Y671159D01*
G37*
%LPD*%
%LPC*%
G36*
X668702Y671159D02*
X668702Y671159D01*
X665196Y672612D01*
X662512Y675296D01*
X661059Y678802D01*
X661059Y682598D01*
X662512Y686104D01*
X665196Y688788D01*
X668702Y690241D01*
X672498Y690241D01*
X676004Y688788D01*
X678688Y686104D01*
X680141Y682598D01*
X680141Y678802D01*
X678688Y675296D01*
X676004Y672612D01*
X672498Y671159D01*
X668702Y671159D01*
G37*
%LPD*%
%LPC*%
G36*
X643302Y671159D02*
X643302Y671159D01*
X639796Y672612D01*
X637112Y675296D01*
X635659Y678802D01*
X635659Y682598D01*
X637112Y686104D01*
X639796Y688788D01*
X643302Y690241D01*
X647098Y690241D01*
X650604Y688788D01*
X653288Y686104D01*
X654741Y682598D01*
X654741Y678802D01*
X653288Y675296D01*
X650604Y672612D01*
X647098Y671159D01*
X643302Y671159D01*
G37*
%LPD*%
%LPC*%
G36*
X617902Y671159D02*
X617902Y671159D01*
X614396Y672612D01*
X611712Y675296D01*
X610259Y678802D01*
X610259Y682598D01*
X611712Y686104D01*
X614396Y688788D01*
X617902Y690241D01*
X621698Y690241D01*
X625204Y688788D01*
X627888Y686104D01*
X629341Y682598D01*
X629341Y678802D01*
X627888Y675296D01*
X625204Y672612D01*
X621698Y671159D01*
X617902Y671159D01*
G37*
%LPD*%
%LPC*%
G36*
X592502Y671159D02*
X592502Y671159D01*
X588996Y672612D01*
X586312Y675296D01*
X584859Y678802D01*
X584859Y682598D01*
X586312Y686104D01*
X588996Y688788D01*
X592502Y690241D01*
X596298Y690241D01*
X599804Y688788D01*
X602488Y686104D01*
X603941Y682598D01*
X603941Y678802D01*
X602488Y675296D01*
X599804Y672612D01*
X596298Y671159D01*
X592502Y671159D01*
G37*
%LPD*%
%LPC*%
G36*
X567102Y671159D02*
X567102Y671159D01*
X563596Y672612D01*
X560912Y675296D01*
X559459Y678802D01*
X559459Y682598D01*
X560912Y686104D01*
X563596Y688788D01*
X567102Y690241D01*
X570898Y690241D01*
X574404Y688788D01*
X577088Y686104D01*
X578541Y682598D01*
X578541Y678802D01*
X577088Y675296D01*
X574404Y672612D01*
X570898Y671159D01*
X567102Y671159D01*
G37*
%LPD*%
%LPC*%
G36*
X541702Y671159D02*
X541702Y671159D01*
X538196Y672612D01*
X535512Y675296D01*
X534059Y678802D01*
X534059Y682598D01*
X535512Y686104D01*
X538196Y688788D01*
X541702Y690241D01*
X545498Y690241D01*
X549004Y688788D01*
X551688Y686104D01*
X553141Y682598D01*
X553141Y678802D01*
X551688Y675296D01*
X549004Y672612D01*
X545498Y671159D01*
X541702Y671159D01*
G37*
%LPD*%
%LPC*%
G36*
X516302Y671159D02*
X516302Y671159D01*
X512796Y672612D01*
X510112Y675296D01*
X508659Y678802D01*
X508659Y682598D01*
X510112Y686104D01*
X512796Y688788D01*
X516302Y690241D01*
X520098Y690241D01*
X523604Y688788D01*
X526288Y686104D01*
X527741Y682598D01*
X527741Y678802D01*
X526288Y675296D01*
X523604Y672612D01*
X520098Y671159D01*
X516302Y671159D01*
G37*
%LPD*%
%LPC*%
G36*
X162802Y434959D02*
X162802Y434959D01*
X159296Y436412D01*
X156612Y439096D01*
X155159Y442602D01*
X155159Y446398D01*
X156612Y449904D01*
X159296Y452588D01*
X162802Y454041D01*
X166598Y454041D01*
X170104Y452588D01*
X172788Y449904D01*
X174241Y446398D01*
X174241Y442602D01*
X172788Y439096D01*
X170104Y436412D01*
X166598Y434959D01*
X162802Y434959D01*
G37*
%LPD*%
%LPC*%
G36*
X137802Y434959D02*
X137802Y434959D01*
X134296Y436412D01*
X131612Y439096D01*
X130159Y442602D01*
X130159Y446398D01*
X131612Y449904D01*
X134296Y452588D01*
X137802Y454041D01*
X141598Y454041D01*
X145104Y452588D01*
X147788Y449904D01*
X149241Y446398D01*
X149241Y442602D01*
X147788Y439096D01*
X145104Y436412D01*
X141598Y434959D01*
X137802Y434959D01*
G37*
%LPD*%
%LPC*%
G36*
X112802Y434959D02*
X112802Y434959D01*
X109296Y436412D01*
X106612Y439096D01*
X105159Y442602D01*
X105159Y446398D01*
X106612Y449904D01*
X109296Y452588D01*
X112802Y454041D01*
X116598Y454041D01*
X120104Y452588D01*
X122788Y449904D01*
X124241Y446398D01*
X124241Y442602D01*
X122788Y439096D01*
X120104Y436412D01*
X116598Y434959D01*
X112802Y434959D01*
G37*
%LPD*%
%LPC*%
G36*
X414702Y671159D02*
X414702Y671159D01*
X411196Y672612D01*
X408512Y675296D01*
X407059Y678802D01*
X407059Y682598D01*
X408512Y686104D01*
X411196Y688788D01*
X414702Y690241D01*
X418498Y690241D01*
X422004Y688788D01*
X424688Y686104D01*
X426141Y682598D01*
X426141Y678802D01*
X424688Y675296D01*
X422004Y672612D01*
X418498Y671159D01*
X414702Y671159D01*
G37*
%LPD*%
%LPC*%
G36*
X490902Y671159D02*
X490902Y671159D01*
X487396Y672612D01*
X484712Y675296D01*
X483259Y678802D01*
X483259Y682598D01*
X484712Y686104D01*
X487396Y688788D01*
X490902Y690241D01*
X494698Y690241D01*
X498204Y688788D01*
X500888Y686104D01*
X502341Y682598D01*
X502341Y678802D01*
X500888Y675296D01*
X498204Y672612D01*
X494698Y671159D01*
X490902Y671159D01*
G37*
%LPD*%
%LPC*%
G36*
X440102Y671159D02*
X440102Y671159D01*
X436596Y672612D01*
X433912Y675296D01*
X432459Y678802D01*
X432459Y682598D01*
X433912Y686104D01*
X436596Y688788D01*
X440102Y690241D01*
X443898Y690241D01*
X447404Y688788D01*
X450088Y686104D01*
X451541Y682598D01*
X451541Y678802D01*
X450088Y675296D01*
X447404Y672612D01*
X443898Y671159D01*
X440102Y671159D01*
G37*
%LPD*%
%LPC*%
G36*
X465502Y671159D02*
X465502Y671159D01*
X461996Y672612D01*
X459312Y675296D01*
X457859Y678802D01*
X457859Y682598D01*
X459312Y686104D01*
X461996Y688788D01*
X465502Y690241D01*
X469298Y690241D01*
X472804Y688788D01*
X475488Y686104D01*
X476941Y682598D01*
X476941Y678802D01*
X475488Y675296D01*
X472804Y672612D01*
X469298Y671159D01*
X465502Y671159D01*
G37*
%LPD*%
%LPC*%
G36*
X637657Y636136D02*
X637657Y636136D01*
X634436Y637470D01*
X631970Y639936D01*
X630636Y643157D01*
X630636Y646643D01*
X631970Y649864D01*
X634436Y652330D01*
X637657Y653664D01*
X641143Y653664D01*
X644364Y652330D01*
X646830Y649864D01*
X648164Y646643D01*
X648164Y643157D01*
X646830Y639936D01*
X644364Y637470D01*
X641143Y636136D01*
X637657Y636136D01*
G37*
%LPD*%
%LPC*%
G36*
X612257Y636136D02*
X612257Y636136D01*
X609036Y637470D01*
X606570Y639936D01*
X605236Y643157D01*
X605236Y646643D01*
X606570Y649864D01*
X609036Y652330D01*
X612257Y653664D01*
X615743Y653664D01*
X618964Y652330D01*
X621430Y649864D01*
X622764Y646643D01*
X622764Y643157D01*
X621430Y639936D01*
X618964Y637470D01*
X615743Y636136D01*
X612257Y636136D01*
G37*
%LPD*%
%LPC*%
G36*
X586857Y610736D02*
X586857Y610736D01*
X583636Y612070D01*
X581170Y614536D01*
X579836Y617757D01*
X579836Y621243D01*
X581170Y624464D01*
X583636Y626930D01*
X586857Y628264D01*
X590343Y628264D01*
X593564Y626930D01*
X596030Y624464D01*
X597364Y621243D01*
X597364Y617757D01*
X596030Y614536D01*
X593564Y612070D01*
X590343Y610736D01*
X586857Y610736D01*
G37*
%LPD*%
%LPC*%
G36*
X561457Y610736D02*
X561457Y610736D01*
X558236Y612070D01*
X555770Y614536D01*
X554436Y617757D01*
X554436Y621243D01*
X555770Y624464D01*
X558236Y626930D01*
X561457Y628264D01*
X564943Y628264D01*
X568164Y626930D01*
X570630Y624464D01*
X571964Y621243D01*
X571964Y617757D01*
X570630Y614536D01*
X568164Y612070D01*
X564943Y610736D01*
X561457Y610736D01*
G37*
%LPD*%
%LPC*%
G36*
X536057Y610736D02*
X536057Y610736D01*
X532836Y612070D01*
X530370Y614536D01*
X529036Y617757D01*
X529036Y621243D01*
X530370Y624464D01*
X532836Y626930D01*
X536057Y628264D01*
X539543Y628264D01*
X542764Y626930D01*
X545230Y624464D01*
X546564Y621243D01*
X546564Y617757D01*
X545230Y614536D01*
X542764Y612070D01*
X539543Y610736D01*
X536057Y610736D01*
G37*
%LPD*%
%LPC*%
G36*
X510657Y610736D02*
X510657Y610736D01*
X507436Y612070D01*
X504970Y614536D01*
X503636Y617757D01*
X503636Y621243D01*
X504970Y624464D01*
X507436Y626930D01*
X510657Y628264D01*
X514143Y628264D01*
X517364Y626930D01*
X519830Y624464D01*
X521164Y621243D01*
X521164Y617757D01*
X519830Y614536D01*
X517364Y612070D01*
X514143Y610736D01*
X510657Y610736D01*
G37*
%LPD*%
%LPC*%
G36*
X942457Y610736D02*
X942457Y610736D01*
X939236Y612070D01*
X936770Y614536D01*
X935436Y617757D01*
X935436Y621243D01*
X936770Y624464D01*
X939236Y626930D01*
X942457Y628264D01*
X945943Y628264D01*
X949164Y626930D01*
X951630Y624464D01*
X952964Y621243D01*
X952964Y617757D01*
X951630Y614536D01*
X949164Y612070D01*
X945943Y610736D01*
X942457Y610736D01*
G37*
%LPD*%
%LPC*%
G36*
X917057Y610736D02*
X917057Y610736D01*
X913836Y612070D01*
X911370Y614536D01*
X910036Y617757D01*
X910036Y621243D01*
X911370Y624464D01*
X913836Y626930D01*
X917057Y628264D01*
X920543Y628264D01*
X923764Y626930D01*
X926230Y624464D01*
X927564Y621243D01*
X927564Y617757D01*
X926230Y614536D01*
X923764Y612070D01*
X920543Y610736D01*
X917057Y610736D01*
G37*
%LPD*%
%LPC*%
G36*
X891657Y610736D02*
X891657Y610736D01*
X888436Y612070D01*
X885970Y614536D01*
X884636Y617757D01*
X884636Y621243D01*
X885970Y624464D01*
X888436Y626930D01*
X891657Y628264D01*
X895143Y628264D01*
X898364Y626930D01*
X900830Y624464D01*
X902164Y621243D01*
X902164Y617757D01*
X900830Y614536D01*
X898364Y612070D01*
X895143Y610736D01*
X891657Y610736D01*
G37*
%LPD*%
%LPC*%
G36*
X866257Y610736D02*
X866257Y610736D01*
X863036Y612070D01*
X860570Y614536D01*
X859236Y617757D01*
X859236Y621243D01*
X860570Y624464D01*
X863036Y626930D01*
X866257Y628264D01*
X869743Y628264D01*
X872964Y626930D01*
X875430Y624464D01*
X876764Y621243D01*
X876764Y617757D01*
X875430Y614536D01*
X872964Y612070D01*
X869743Y610736D01*
X866257Y610736D01*
G37*
%LPD*%
%LPC*%
G36*
X840857Y610736D02*
X840857Y610736D01*
X837636Y612070D01*
X835170Y614536D01*
X833836Y617757D01*
X833836Y621243D01*
X835170Y624464D01*
X837636Y626930D01*
X840857Y628264D01*
X844343Y628264D01*
X847564Y626930D01*
X850030Y624464D01*
X851364Y621243D01*
X851364Y617757D01*
X850030Y614536D01*
X847564Y612070D01*
X844343Y610736D01*
X840857Y610736D01*
G37*
%LPD*%
%LPC*%
G36*
X815457Y610736D02*
X815457Y610736D01*
X812236Y612070D01*
X809770Y614536D01*
X808436Y617757D01*
X808436Y621243D01*
X809770Y624464D01*
X812236Y626930D01*
X815457Y628264D01*
X818943Y628264D01*
X822164Y626930D01*
X824630Y624464D01*
X825964Y621243D01*
X825964Y617757D01*
X824630Y614536D01*
X822164Y612070D01*
X818943Y610736D01*
X815457Y610736D01*
G37*
%LPD*%
%LPC*%
G36*
X790057Y610736D02*
X790057Y610736D01*
X786836Y612070D01*
X784370Y614536D01*
X783036Y617757D01*
X783036Y621243D01*
X784370Y624464D01*
X786836Y626930D01*
X790057Y628264D01*
X793543Y628264D01*
X796764Y626930D01*
X799230Y624464D01*
X800564Y621243D01*
X800564Y617757D01*
X799230Y614536D01*
X796764Y612070D01*
X793543Y610736D01*
X790057Y610736D01*
G37*
%LPD*%
%LPC*%
G36*
X764657Y610736D02*
X764657Y610736D01*
X761436Y612070D01*
X758970Y614536D01*
X757636Y617757D01*
X757636Y621243D01*
X758970Y624464D01*
X761436Y626930D01*
X764657Y628264D01*
X768143Y628264D01*
X771364Y626930D01*
X773830Y624464D01*
X775164Y621243D01*
X775164Y617757D01*
X773830Y614536D01*
X771364Y612070D01*
X768143Y610736D01*
X764657Y610736D01*
G37*
%LPD*%
%LPC*%
G36*
X739257Y610736D02*
X739257Y610736D01*
X736036Y612070D01*
X733570Y614536D01*
X732236Y617757D01*
X732236Y621243D01*
X733570Y624464D01*
X736036Y626930D01*
X739257Y628264D01*
X742743Y628264D01*
X745964Y626930D01*
X748430Y624464D01*
X749764Y621243D01*
X749764Y617757D01*
X748430Y614536D01*
X745964Y612070D01*
X742743Y610736D01*
X739257Y610736D01*
G37*
%LPD*%
%LPC*%
G36*
X713857Y610736D02*
X713857Y610736D01*
X710636Y612070D01*
X708170Y614536D01*
X706836Y617757D01*
X706836Y621243D01*
X708170Y624464D01*
X710636Y626930D01*
X713857Y628264D01*
X717343Y628264D01*
X720564Y626930D01*
X723030Y624464D01*
X724364Y621243D01*
X724364Y617757D01*
X723030Y614536D01*
X720564Y612070D01*
X717343Y610736D01*
X713857Y610736D01*
G37*
%LPD*%
%LPC*%
G36*
X688457Y610736D02*
X688457Y610736D01*
X685236Y612070D01*
X682770Y614536D01*
X681436Y617757D01*
X681436Y621243D01*
X682770Y624464D01*
X685236Y626930D01*
X688457Y628264D01*
X691943Y628264D01*
X695164Y626930D01*
X697630Y624464D01*
X698964Y621243D01*
X698964Y617757D01*
X697630Y614536D01*
X695164Y612070D01*
X691943Y610736D01*
X688457Y610736D01*
G37*
%LPD*%
%LPC*%
G36*
X663057Y610736D02*
X663057Y610736D01*
X659836Y612070D01*
X657370Y614536D01*
X656036Y617757D01*
X656036Y621243D01*
X657370Y624464D01*
X659836Y626930D01*
X663057Y628264D01*
X666543Y628264D01*
X669764Y626930D01*
X672230Y624464D01*
X673564Y621243D01*
X673564Y617757D01*
X672230Y614536D01*
X669764Y612070D01*
X666543Y610736D01*
X663057Y610736D01*
G37*
%LPD*%
%LPC*%
G36*
X637657Y610736D02*
X637657Y610736D01*
X634436Y612070D01*
X631970Y614536D01*
X630636Y617757D01*
X630636Y621243D01*
X631970Y624464D01*
X634436Y626930D01*
X637657Y628264D01*
X641143Y628264D01*
X644364Y626930D01*
X646830Y624464D01*
X648164Y621243D01*
X648164Y617757D01*
X646830Y614536D01*
X644364Y612070D01*
X641143Y610736D01*
X637657Y610736D01*
G37*
%LPD*%
%LPC*%
G36*
X612257Y610736D02*
X612257Y610736D01*
X609036Y612070D01*
X606570Y614536D01*
X605236Y617757D01*
X605236Y621243D01*
X606570Y624464D01*
X609036Y626930D01*
X612257Y628264D01*
X615743Y628264D01*
X618964Y626930D01*
X621430Y624464D01*
X622764Y621243D01*
X622764Y617757D01*
X621430Y614536D01*
X618964Y612070D01*
X615743Y610736D01*
X612257Y610736D01*
G37*
%LPD*%
%LPC*%
G36*
X764657Y382136D02*
X764657Y382136D01*
X761436Y383470D01*
X758970Y385936D01*
X757636Y389157D01*
X757636Y392643D01*
X758970Y395864D01*
X761436Y398330D01*
X764657Y399664D01*
X768143Y399664D01*
X771364Y398330D01*
X773830Y395864D01*
X775164Y392643D01*
X775164Y389157D01*
X773830Y385936D01*
X771364Y383470D01*
X768143Y382136D01*
X764657Y382136D01*
G37*
%LPD*%
%LPC*%
G36*
X586857Y636136D02*
X586857Y636136D01*
X583636Y637470D01*
X581170Y639936D01*
X579836Y643157D01*
X579836Y646643D01*
X581170Y649864D01*
X583636Y652330D01*
X586857Y653664D01*
X590343Y653664D01*
X593564Y652330D01*
X596030Y649864D01*
X597364Y646643D01*
X597364Y643157D01*
X596030Y639936D01*
X593564Y637470D01*
X590343Y636136D01*
X586857Y636136D01*
G37*
%LPD*%
%LPC*%
G36*
X561457Y636136D02*
X561457Y636136D01*
X558236Y637470D01*
X555770Y639936D01*
X554436Y643157D01*
X554436Y646643D01*
X555770Y649864D01*
X558236Y652330D01*
X561457Y653664D01*
X564943Y653664D01*
X568164Y652330D01*
X570630Y649864D01*
X571964Y646643D01*
X571964Y643157D01*
X570630Y639936D01*
X568164Y637470D01*
X564943Y636136D01*
X561457Y636136D01*
G37*
%LPD*%
%LPC*%
G36*
X536057Y636136D02*
X536057Y636136D01*
X532836Y637470D01*
X530370Y639936D01*
X529036Y643157D01*
X529036Y646643D01*
X530370Y649864D01*
X532836Y652330D01*
X536057Y653664D01*
X539543Y653664D01*
X542764Y652330D01*
X545230Y649864D01*
X546564Y646643D01*
X546564Y643157D01*
X545230Y639936D01*
X542764Y637470D01*
X539543Y636136D01*
X536057Y636136D01*
G37*
%LPD*%
%LPC*%
G36*
X510657Y636136D02*
X510657Y636136D01*
X507436Y637470D01*
X504970Y639936D01*
X503636Y643157D01*
X503636Y646643D01*
X504970Y649864D01*
X507436Y652330D01*
X510657Y653664D01*
X514143Y653664D01*
X517364Y652330D01*
X519830Y649864D01*
X521164Y646643D01*
X521164Y643157D01*
X519830Y639936D01*
X517364Y637470D01*
X514143Y636136D01*
X510657Y636136D01*
G37*
%LPD*%
%LPC*%
G36*
X840857Y382136D02*
X840857Y382136D01*
X837636Y383470D01*
X835170Y385936D01*
X833836Y389157D01*
X833836Y392643D01*
X835170Y395864D01*
X837636Y398330D01*
X840857Y399664D01*
X844343Y399664D01*
X847564Y398330D01*
X850030Y395864D01*
X851364Y392643D01*
X851364Y389157D01*
X850030Y385936D01*
X847564Y383470D01*
X844343Y382136D01*
X840857Y382136D01*
G37*
%LPD*%
%LPC*%
G36*
X815457Y382136D02*
X815457Y382136D01*
X812236Y383470D01*
X809770Y385936D01*
X808436Y389157D01*
X808436Y392643D01*
X809770Y395864D01*
X812236Y398330D01*
X815457Y399664D01*
X818943Y399664D01*
X822164Y398330D01*
X824630Y395864D01*
X825964Y392643D01*
X825964Y389157D01*
X824630Y385936D01*
X822164Y383470D01*
X818943Y382136D01*
X815457Y382136D01*
G37*
%LPD*%
%LPC*%
G36*
X942457Y382136D02*
X942457Y382136D01*
X939236Y383470D01*
X936770Y385936D01*
X935436Y389157D01*
X935436Y392643D01*
X936770Y395864D01*
X939236Y398330D01*
X942457Y399664D01*
X945943Y399664D01*
X949164Y398330D01*
X951630Y395864D01*
X952964Y392643D01*
X952964Y389157D01*
X951630Y385936D01*
X949164Y383470D01*
X945943Y382136D01*
X942457Y382136D01*
G37*
%LPD*%
%LPC*%
G36*
X917057Y382136D02*
X917057Y382136D01*
X913836Y383470D01*
X911370Y385936D01*
X910036Y389157D01*
X910036Y392643D01*
X911370Y395864D01*
X913836Y398330D01*
X917057Y399664D01*
X920543Y399664D01*
X923764Y398330D01*
X926230Y395864D01*
X927564Y392643D01*
X927564Y389157D01*
X926230Y385936D01*
X923764Y383470D01*
X920543Y382136D01*
X917057Y382136D01*
G37*
%LPD*%
%LPC*%
G36*
X891657Y382136D02*
X891657Y382136D01*
X888436Y383470D01*
X885970Y385936D01*
X884636Y389157D01*
X884636Y392643D01*
X885970Y395864D01*
X888436Y398330D01*
X891657Y399664D01*
X895143Y399664D01*
X898364Y398330D01*
X900830Y395864D01*
X902164Y392643D01*
X902164Y389157D01*
X900830Y385936D01*
X898364Y383470D01*
X895143Y382136D01*
X891657Y382136D01*
G37*
%LPD*%
%LPC*%
G36*
X866257Y382136D02*
X866257Y382136D01*
X863036Y383470D01*
X860570Y385936D01*
X859236Y389157D01*
X859236Y392643D01*
X860570Y395864D01*
X863036Y398330D01*
X866257Y399664D01*
X869743Y399664D01*
X872964Y398330D01*
X875430Y395864D01*
X876764Y392643D01*
X876764Y389157D01*
X875430Y385936D01*
X872964Y383470D01*
X869743Y382136D01*
X866257Y382136D01*
G37*
%LPD*%
%LPC*%
G36*
X790057Y382136D02*
X790057Y382136D01*
X786836Y383470D01*
X784370Y385936D01*
X783036Y389157D01*
X783036Y392643D01*
X784370Y395864D01*
X786836Y398330D01*
X790057Y399664D01*
X793543Y399664D01*
X796764Y398330D01*
X799230Y395864D01*
X800564Y392643D01*
X800564Y389157D01*
X799230Y385936D01*
X796764Y383470D01*
X793543Y382136D01*
X790057Y382136D01*
G37*
%LPD*%
%LPC*%
G36*
X739257Y382136D02*
X739257Y382136D01*
X736036Y383470D01*
X733570Y385936D01*
X732236Y389157D01*
X732236Y392643D01*
X733570Y395864D01*
X736036Y398330D01*
X739257Y399664D01*
X742743Y399664D01*
X745964Y398330D01*
X748430Y395864D01*
X749764Y392643D01*
X749764Y389157D01*
X748430Y385936D01*
X745964Y383470D01*
X742743Y382136D01*
X739257Y382136D01*
G37*
%LPD*%
%LPC*%
G36*
X713857Y382136D02*
X713857Y382136D01*
X710636Y383470D01*
X708170Y385936D01*
X706836Y389157D01*
X706836Y392643D01*
X708170Y395864D01*
X710636Y398330D01*
X713857Y399664D01*
X717343Y399664D01*
X720564Y398330D01*
X723030Y395864D01*
X724364Y392643D01*
X724364Y389157D01*
X723030Y385936D01*
X720564Y383470D01*
X717343Y382136D01*
X713857Y382136D01*
G37*
%LPD*%
%LPC*%
G36*
X688457Y382136D02*
X688457Y382136D01*
X685236Y383470D01*
X682770Y385936D01*
X681436Y389157D01*
X681436Y392643D01*
X682770Y395864D01*
X685236Y398330D01*
X688457Y399664D01*
X691943Y399664D01*
X695164Y398330D01*
X697630Y395864D01*
X698964Y392643D01*
X698964Y389157D01*
X697630Y385936D01*
X695164Y383470D01*
X691943Y382136D01*
X688457Y382136D01*
G37*
%LPD*%
%LPC*%
G36*
X663057Y382136D02*
X663057Y382136D01*
X659836Y383470D01*
X657370Y385936D01*
X656036Y389157D01*
X656036Y392643D01*
X657370Y395864D01*
X659836Y398330D01*
X663057Y399664D01*
X666543Y399664D01*
X669764Y398330D01*
X672230Y395864D01*
X673564Y392643D01*
X673564Y389157D01*
X672230Y385936D01*
X669764Y383470D01*
X666543Y382136D01*
X663057Y382136D01*
G37*
%LPD*%
%LPC*%
G36*
X637657Y382136D02*
X637657Y382136D01*
X634436Y383470D01*
X631970Y385936D01*
X630636Y389157D01*
X630636Y392643D01*
X631970Y395864D01*
X634436Y398330D01*
X637657Y399664D01*
X641143Y399664D01*
X644364Y398330D01*
X646830Y395864D01*
X648164Y392643D01*
X648164Y389157D01*
X646830Y385936D01*
X644364Y383470D01*
X641143Y382136D01*
X637657Y382136D01*
G37*
%LPD*%
%LPC*%
G36*
X612257Y382136D02*
X612257Y382136D01*
X609036Y383470D01*
X606570Y385936D01*
X605236Y389157D01*
X605236Y392643D01*
X606570Y395864D01*
X609036Y398330D01*
X612257Y399664D01*
X615743Y399664D01*
X618964Y398330D01*
X621430Y395864D01*
X622764Y392643D01*
X622764Y389157D01*
X621430Y385936D01*
X618964Y383470D01*
X615743Y382136D01*
X612257Y382136D01*
G37*
%LPD*%
%LPC*%
G36*
X586857Y382136D02*
X586857Y382136D01*
X583636Y383470D01*
X581170Y385936D01*
X579836Y389157D01*
X579836Y392643D01*
X581170Y395864D01*
X583636Y398330D01*
X586857Y399664D01*
X590343Y399664D01*
X593564Y398330D01*
X596030Y395864D01*
X597364Y392643D01*
X597364Y389157D01*
X596030Y385936D01*
X593564Y383470D01*
X590343Y382136D01*
X586857Y382136D01*
G37*
%LPD*%
%LPC*%
G36*
X561457Y382136D02*
X561457Y382136D01*
X558236Y383470D01*
X555770Y385936D01*
X554436Y389157D01*
X554436Y392643D01*
X555770Y395864D01*
X558236Y398330D01*
X561457Y399664D01*
X564943Y399664D01*
X568164Y398330D01*
X570630Y395864D01*
X571964Y392643D01*
X571964Y389157D01*
X570630Y385936D01*
X568164Y383470D01*
X564943Y382136D01*
X561457Y382136D01*
G37*
%LPD*%
%LPC*%
G36*
X536057Y382136D02*
X536057Y382136D01*
X532836Y383470D01*
X530370Y385936D01*
X529036Y389157D01*
X529036Y392643D01*
X530370Y395864D01*
X532836Y398330D01*
X536057Y399664D01*
X539543Y399664D01*
X542764Y398330D01*
X545230Y395864D01*
X546564Y392643D01*
X546564Y389157D01*
X545230Y385936D01*
X542764Y383470D01*
X539543Y382136D01*
X536057Y382136D01*
G37*
%LPD*%
%LPC*%
G36*
X510657Y382136D02*
X510657Y382136D01*
X507436Y383470D01*
X504970Y385936D01*
X503636Y389157D01*
X503636Y392643D01*
X504970Y395864D01*
X507436Y398330D01*
X510657Y399664D01*
X514143Y399664D01*
X517364Y398330D01*
X519830Y395864D01*
X521164Y392643D01*
X521164Y389157D01*
X519830Y385936D01*
X517364Y383470D01*
X514143Y382136D01*
X510657Y382136D01*
G37*
%LPD*%
%LPC*%
G36*
X942457Y636136D02*
X942457Y636136D01*
X939236Y637470D01*
X936770Y639936D01*
X935436Y643157D01*
X935436Y646643D01*
X936770Y649864D01*
X939236Y652330D01*
X942457Y653664D01*
X945943Y653664D01*
X949164Y652330D01*
X951630Y649864D01*
X952964Y646643D01*
X952964Y643157D01*
X951630Y639936D01*
X949164Y637470D01*
X945943Y636136D01*
X942457Y636136D01*
G37*
%LPD*%
%LPC*%
G36*
X917057Y636136D02*
X917057Y636136D01*
X913836Y637470D01*
X911370Y639936D01*
X910036Y643157D01*
X910036Y646643D01*
X911370Y649864D01*
X913836Y652330D01*
X917057Y653664D01*
X920543Y653664D01*
X923764Y652330D01*
X926230Y649864D01*
X927564Y646643D01*
X927564Y643157D01*
X926230Y639936D01*
X923764Y637470D01*
X920543Y636136D01*
X917057Y636136D01*
G37*
%LPD*%
%LPC*%
G36*
X586857Y356736D02*
X586857Y356736D01*
X583636Y358070D01*
X581170Y360536D01*
X579836Y363757D01*
X579836Y367243D01*
X581170Y370464D01*
X583636Y372930D01*
X586857Y374264D01*
X590343Y374264D01*
X593564Y372930D01*
X596030Y370464D01*
X597364Y367243D01*
X597364Y363757D01*
X596030Y360536D01*
X593564Y358070D01*
X590343Y356736D01*
X586857Y356736D01*
G37*
%LPD*%
%LPC*%
G36*
X561457Y356736D02*
X561457Y356736D01*
X558236Y358070D01*
X555770Y360536D01*
X554436Y363757D01*
X554436Y367243D01*
X555770Y370464D01*
X558236Y372930D01*
X561457Y374264D01*
X564943Y374264D01*
X568164Y372930D01*
X570630Y370464D01*
X571964Y367243D01*
X571964Y363757D01*
X570630Y360536D01*
X568164Y358070D01*
X564943Y356736D01*
X561457Y356736D01*
G37*
%LPD*%
%LPC*%
G36*
X891657Y636136D02*
X891657Y636136D01*
X888436Y637470D01*
X885970Y639936D01*
X884636Y643157D01*
X884636Y646643D01*
X885970Y649864D01*
X888436Y652330D01*
X891657Y653664D01*
X895143Y653664D01*
X898364Y652330D01*
X900830Y649864D01*
X902164Y646643D01*
X902164Y643157D01*
X900830Y639936D01*
X898364Y637470D01*
X895143Y636136D01*
X891657Y636136D01*
G37*
%LPD*%
%LPC*%
G36*
X510657Y356736D02*
X510657Y356736D01*
X507436Y358070D01*
X504970Y360536D01*
X503636Y363757D01*
X503636Y367243D01*
X504970Y370464D01*
X507436Y372930D01*
X510657Y374264D01*
X514143Y374264D01*
X517364Y372930D01*
X519830Y370464D01*
X521164Y367243D01*
X521164Y363757D01*
X519830Y360536D01*
X517364Y358070D01*
X514143Y356736D01*
X510657Y356736D01*
G37*
%LPD*%
%LPC*%
G36*
X942457Y356736D02*
X942457Y356736D01*
X939236Y358070D01*
X936770Y360536D01*
X935436Y363757D01*
X935436Y367243D01*
X936770Y370464D01*
X939236Y372930D01*
X942457Y374264D01*
X945943Y374264D01*
X949164Y372930D01*
X951630Y370464D01*
X952964Y367243D01*
X952964Y363757D01*
X951630Y360536D01*
X949164Y358070D01*
X945943Y356736D01*
X942457Y356736D01*
G37*
%LPD*%
%LPC*%
G36*
X917057Y356736D02*
X917057Y356736D01*
X913836Y358070D01*
X911370Y360536D01*
X910036Y363757D01*
X910036Y367243D01*
X911370Y370464D01*
X913836Y372930D01*
X917057Y374264D01*
X920543Y374264D01*
X923764Y372930D01*
X926230Y370464D01*
X927564Y367243D01*
X927564Y363757D01*
X926230Y360536D01*
X923764Y358070D01*
X920543Y356736D01*
X917057Y356736D01*
G37*
%LPD*%
%LPC*%
G36*
X891657Y356736D02*
X891657Y356736D01*
X888436Y358070D01*
X885970Y360536D01*
X884636Y363757D01*
X884636Y367243D01*
X885970Y370464D01*
X888436Y372930D01*
X891657Y374264D01*
X895143Y374264D01*
X898364Y372930D01*
X900830Y370464D01*
X902164Y367243D01*
X902164Y363757D01*
X900830Y360536D01*
X898364Y358070D01*
X895143Y356736D01*
X891657Y356736D01*
G37*
%LPD*%
%LPC*%
G36*
X866257Y356736D02*
X866257Y356736D01*
X863036Y358070D01*
X860570Y360536D01*
X859236Y363757D01*
X859236Y367243D01*
X860570Y370464D01*
X863036Y372930D01*
X866257Y374264D01*
X869743Y374264D01*
X872964Y372930D01*
X875430Y370464D01*
X876764Y367243D01*
X876764Y363757D01*
X875430Y360536D01*
X872964Y358070D01*
X869743Y356736D01*
X866257Y356736D01*
G37*
%LPD*%
%LPC*%
G36*
X840857Y356736D02*
X840857Y356736D01*
X837636Y358070D01*
X835170Y360536D01*
X833836Y363757D01*
X833836Y367243D01*
X835170Y370464D01*
X837636Y372930D01*
X840857Y374264D01*
X844343Y374264D01*
X847564Y372930D01*
X850030Y370464D01*
X851364Y367243D01*
X851364Y363757D01*
X850030Y360536D01*
X847564Y358070D01*
X844343Y356736D01*
X840857Y356736D01*
G37*
%LPD*%
%LPC*%
G36*
X815457Y356736D02*
X815457Y356736D01*
X812236Y358070D01*
X809770Y360536D01*
X808436Y363757D01*
X808436Y367243D01*
X809770Y370464D01*
X812236Y372930D01*
X815457Y374264D01*
X818943Y374264D01*
X822164Y372930D01*
X824630Y370464D01*
X825964Y367243D01*
X825964Y363757D01*
X824630Y360536D01*
X822164Y358070D01*
X818943Y356736D01*
X815457Y356736D01*
G37*
%LPD*%
%LPC*%
G36*
X790057Y356736D02*
X790057Y356736D01*
X786836Y358070D01*
X784370Y360536D01*
X783036Y363757D01*
X783036Y367243D01*
X784370Y370464D01*
X786836Y372930D01*
X790057Y374264D01*
X793543Y374264D01*
X796764Y372930D01*
X799230Y370464D01*
X800564Y367243D01*
X800564Y363757D01*
X799230Y360536D01*
X796764Y358070D01*
X793543Y356736D01*
X790057Y356736D01*
G37*
%LPD*%
%LPC*%
G36*
X764657Y356736D02*
X764657Y356736D01*
X761436Y358070D01*
X758970Y360536D01*
X757636Y363757D01*
X757636Y367243D01*
X758970Y370464D01*
X761436Y372930D01*
X764657Y374264D01*
X768143Y374264D01*
X771364Y372930D01*
X773830Y370464D01*
X775164Y367243D01*
X775164Y363757D01*
X773830Y360536D01*
X771364Y358070D01*
X768143Y356736D01*
X764657Y356736D01*
G37*
%LPD*%
%LPC*%
G36*
X739257Y356736D02*
X739257Y356736D01*
X736036Y358070D01*
X733570Y360536D01*
X732236Y363757D01*
X732236Y367243D01*
X733570Y370464D01*
X736036Y372930D01*
X739257Y374264D01*
X742743Y374264D01*
X745964Y372930D01*
X748430Y370464D01*
X749764Y367243D01*
X749764Y363757D01*
X748430Y360536D01*
X745964Y358070D01*
X742743Y356736D01*
X739257Y356736D01*
G37*
%LPD*%
%LPC*%
G36*
X713857Y356736D02*
X713857Y356736D01*
X710636Y358070D01*
X708170Y360536D01*
X706836Y363757D01*
X706836Y367243D01*
X708170Y370464D01*
X710636Y372930D01*
X713857Y374264D01*
X717343Y374264D01*
X720564Y372930D01*
X723030Y370464D01*
X724364Y367243D01*
X724364Y363757D01*
X723030Y360536D01*
X720564Y358070D01*
X717343Y356736D01*
X713857Y356736D01*
G37*
%LPD*%
%LPC*%
G36*
X688457Y356736D02*
X688457Y356736D01*
X685236Y358070D01*
X682770Y360536D01*
X681436Y363757D01*
X681436Y367243D01*
X682770Y370464D01*
X685236Y372930D01*
X688457Y374264D01*
X691943Y374264D01*
X695164Y372930D01*
X697630Y370464D01*
X698964Y367243D01*
X698964Y363757D01*
X697630Y360536D01*
X695164Y358070D01*
X691943Y356736D01*
X688457Y356736D01*
G37*
%LPD*%
%LPC*%
G36*
X663057Y356736D02*
X663057Y356736D01*
X659836Y358070D01*
X657370Y360536D01*
X656036Y363757D01*
X656036Y367243D01*
X657370Y370464D01*
X659836Y372930D01*
X663057Y374264D01*
X666543Y374264D01*
X669764Y372930D01*
X672230Y370464D01*
X673564Y367243D01*
X673564Y363757D01*
X672230Y360536D01*
X669764Y358070D01*
X666543Y356736D01*
X663057Y356736D01*
G37*
%LPD*%
%LPC*%
G36*
X637657Y356736D02*
X637657Y356736D01*
X634436Y358070D01*
X631970Y360536D01*
X630636Y363757D01*
X630636Y367243D01*
X631970Y370464D01*
X634436Y372930D01*
X637657Y374264D01*
X641143Y374264D01*
X644364Y372930D01*
X646830Y370464D01*
X648164Y367243D01*
X648164Y363757D01*
X646830Y360536D01*
X644364Y358070D01*
X641143Y356736D01*
X637657Y356736D01*
G37*
%LPD*%
%LPC*%
G36*
X536057Y356736D02*
X536057Y356736D01*
X532836Y358070D01*
X530370Y360536D01*
X529036Y363757D01*
X529036Y367243D01*
X530370Y370464D01*
X532836Y372930D01*
X536057Y374264D01*
X539543Y374264D01*
X542764Y372930D01*
X545230Y370464D01*
X546564Y367243D01*
X546564Y363757D01*
X545230Y360536D01*
X542764Y358070D01*
X539543Y356736D01*
X536057Y356736D01*
G37*
%LPD*%
%LPC*%
G36*
X866257Y636136D02*
X866257Y636136D01*
X863036Y637470D01*
X860570Y639936D01*
X859236Y643157D01*
X859236Y646643D01*
X860570Y649864D01*
X863036Y652330D01*
X866257Y653664D01*
X869743Y653664D01*
X872964Y652330D01*
X875430Y649864D01*
X876764Y646643D01*
X876764Y643157D01*
X875430Y639936D01*
X872964Y637470D01*
X869743Y636136D01*
X866257Y636136D01*
G37*
%LPD*%
%LPC*%
G36*
X840857Y636136D02*
X840857Y636136D01*
X837636Y637470D01*
X835170Y639936D01*
X833836Y643157D01*
X833836Y646643D01*
X835170Y649864D01*
X837636Y652330D01*
X840857Y653664D01*
X844343Y653664D01*
X847564Y652330D01*
X850030Y649864D01*
X851364Y646643D01*
X851364Y643157D01*
X850030Y639936D01*
X847564Y637470D01*
X844343Y636136D01*
X840857Y636136D01*
G37*
%LPD*%
%LPC*%
G36*
X815457Y636136D02*
X815457Y636136D01*
X812236Y637470D01*
X809770Y639936D01*
X808436Y643157D01*
X808436Y646643D01*
X809770Y649864D01*
X812236Y652330D01*
X815457Y653664D01*
X818943Y653664D01*
X822164Y652330D01*
X824630Y649864D01*
X825964Y646643D01*
X825964Y643157D01*
X824630Y639936D01*
X822164Y637470D01*
X818943Y636136D01*
X815457Y636136D01*
G37*
%LPD*%
%LPC*%
G36*
X790057Y636136D02*
X790057Y636136D01*
X786836Y637470D01*
X784370Y639936D01*
X783036Y643157D01*
X783036Y646643D01*
X784370Y649864D01*
X786836Y652330D01*
X790057Y653664D01*
X793543Y653664D01*
X796764Y652330D01*
X799230Y649864D01*
X800564Y646643D01*
X800564Y643157D01*
X799230Y639936D01*
X796764Y637470D01*
X793543Y636136D01*
X790057Y636136D01*
G37*
%LPD*%
%LPC*%
G36*
X764657Y636136D02*
X764657Y636136D01*
X761436Y637470D01*
X758970Y639936D01*
X757636Y643157D01*
X757636Y646643D01*
X758970Y649864D01*
X761436Y652330D01*
X764657Y653664D01*
X768143Y653664D01*
X771364Y652330D01*
X773830Y649864D01*
X775164Y646643D01*
X775164Y643157D01*
X773830Y639936D01*
X771364Y637470D01*
X768143Y636136D01*
X764657Y636136D01*
G37*
%LPD*%
%LPC*%
G36*
X739257Y636136D02*
X739257Y636136D01*
X736036Y637470D01*
X733570Y639936D01*
X732236Y643157D01*
X732236Y646643D01*
X733570Y649864D01*
X736036Y652330D01*
X739257Y653664D01*
X742743Y653664D01*
X745964Y652330D01*
X748430Y649864D01*
X749764Y646643D01*
X749764Y643157D01*
X748430Y639936D01*
X745964Y637470D01*
X742743Y636136D01*
X739257Y636136D01*
G37*
%LPD*%
%LPC*%
G36*
X713857Y636136D02*
X713857Y636136D01*
X710636Y637470D01*
X708170Y639936D01*
X706836Y643157D01*
X706836Y646643D01*
X708170Y649864D01*
X710636Y652330D01*
X713857Y653664D01*
X717343Y653664D01*
X720564Y652330D01*
X723030Y649864D01*
X724364Y646643D01*
X724364Y643157D01*
X723030Y639936D01*
X720564Y637470D01*
X717343Y636136D01*
X713857Y636136D01*
G37*
%LPD*%
%LPC*%
G36*
X688457Y636136D02*
X688457Y636136D01*
X685236Y637470D01*
X682770Y639936D01*
X681436Y643157D01*
X681436Y646643D01*
X682770Y649864D01*
X685236Y652330D01*
X688457Y653664D01*
X691943Y653664D01*
X695164Y652330D01*
X697630Y649864D01*
X698964Y646643D01*
X698964Y643157D01*
X697630Y639936D01*
X695164Y637470D01*
X691943Y636136D01*
X688457Y636136D01*
G37*
%LPD*%
%LPC*%
G36*
X663057Y636136D02*
X663057Y636136D01*
X659836Y637470D01*
X657370Y639936D01*
X656036Y643157D01*
X656036Y646643D01*
X657370Y649864D01*
X659836Y652330D01*
X663057Y653664D01*
X666543Y653664D01*
X669764Y652330D01*
X672230Y649864D01*
X673564Y646643D01*
X673564Y643157D01*
X672230Y639936D01*
X669764Y637470D01*
X666543Y636136D01*
X663057Y636136D01*
G37*
%LPD*%
%LPC*%
G36*
X612257Y356736D02*
X612257Y356736D01*
X609036Y358070D01*
X606570Y360536D01*
X605236Y363757D01*
X605236Y367243D01*
X606570Y370464D01*
X609036Y372930D01*
X612257Y374264D01*
X615743Y374264D01*
X618964Y372930D01*
X621430Y370464D01*
X622764Y367243D01*
X622764Y363757D01*
X621430Y360536D01*
X618964Y358070D01*
X615743Y356736D01*
X612257Y356736D01*
G37*
%LPD*%
%LPC*%
G36*
X349281Y573619D02*
X349281Y573619D01*
X346325Y574843D01*
X344063Y577105D01*
X342839Y580061D01*
X342839Y583259D01*
X344063Y586215D01*
X346325Y588477D01*
X349281Y589701D01*
X352479Y589701D01*
X355435Y588477D01*
X357697Y586215D01*
X358921Y583259D01*
X358921Y580061D01*
X357697Y577105D01*
X355435Y574843D01*
X352479Y573619D01*
X349281Y573619D01*
G37*
%LPD*%
%LPC*%
G36*
X394281Y573619D02*
X394281Y573619D01*
X391325Y574843D01*
X389063Y577105D01*
X387839Y580061D01*
X387839Y583259D01*
X389063Y586215D01*
X391325Y588477D01*
X394281Y589701D01*
X397479Y589701D01*
X400435Y588477D01*
X402697Y586215D01*
X403921Y583259D01*
X403921Y580061D01*
X402697Y577105D01*
X400435Y574843D01*
X397479Y573619D01*
X394281Y573619D01*
G37*
%LPD*%
%LPC*%
G36*
X313678Y575619D02*
X313678Y575619D01*
X311458Y576539D01*
X309759Y578238D01*
X308839Y580458D01*
X308839Y582862D01*
X309759Y585082D01*
X311458Y586781D01*
X313678Y587701D01*
X316082Y587701D01*
X318302Y586781D01*
X320001Y585082D01*
X320921Y582862D01*
X320921Y580458D01*
X320001Y578238D01*
X318302Y576539D01*
X316082Y575619D01*
X313678Y575619D01*
G37*
%LPD*%
%LPC*%
G36*
X430678Y575619D02*
X430678Y575619D01*
X428458Y576539D01*
X426759Y578238D01*
X425839Y580458D01*
X425839Y582862D01*
X426759Y585082D01*
X428458Y586781D01*
X430678Y587701D01*
X433082Y587701D01*
X435302Y586781D01*
X437001Y585082D01*
X437921Y582862D01*
X437921Y580458D01*
X437001Y578238D01*
X435302Y576539D01*
X433082Y575619D01*
X430678Y575619D01*
G37*
%LPD*%
%LPC*%
G36*
X824343Y184685D02*
X824343Y184685D01*
X822206Y185570D01*
X820570Y187206D01*
X819685Y189343D01*
X819685Y191657D01*
X820570Y193794D01*
X822206Y195430D01*
X824343Y196315D01*
X826657Y196315D01*
X828794Y195430D01*
X830430Y193794D01*
X831315Y191657D01*
X831315Y189343D01*
X830430Y187206D01*
X828794Y185570D01*
X826657Y184685D01*
X824343Y184685D01*
G37*
%LPD*%
%LPC*%
G36*
X748143Y184685D02*
X748143Y184685D01*
X746006Y185570D01*
X744370Y187206D01*
X743485Y189343D01*
X743485Y191657D01*
X744370Y193794D01*
X746006Y195430D01*
X748143Y196315D01*
X750457Y196315D01*
X752594Y195430D01*
X754230Y193794D01*
X755115Y191657D01*
X755115Y189343D01*
X754230Y187206D01*
X752594Y185570D01*
X750457Y184685D01*
X748143Y184685D01*
G37*
%LPD*%
%LPC*%
G36*
X1078343Y133885D02*
X1078343Y133885D01*
X1076206Y134770D01*
X1074570Y136406D01*
X1073685Y138543D01*
X1073685Y140857D01*
X1074570Y142994D01*
X1076206Y144630D01*
X1078343Y145515D01*
X1080657Y145515D01*
X1082794Y144630D01*
X1084430Y142994D01*
X1085315Y140857D01*
X1085315Y138543D01*
X1084430Y136406D01*
X1082794Y134770D01*
X1080657Y133885D01*
X1078343Y133885D01*
G37*
%LPD*%
%LPC*%
G36*
X976743Y184685D02*
X976743Y184685D01*
X974606Y185570D01*
X972970Y187206D01*
X972085Y189343D01*
X972085Y191657D01*
X972970Y193794D01*
X974606Y195430D01*
X976743Y196315D01*
X979057Y196315D01*
X981194Y195430D01*
X982830Y193794D01*
X983715Y191657D01*
X983715Y189343D01*
X982830Y187206D01*
X981194Y185570D01*
X979057Y184685D01*
X976743Y184685D01*
G37*
%LPD*%
%LPC*%
G36*
X900543Y184685D02*
X900543Y184685D01*
X898406Y185570D01*
X896770Y187206D01*
X895885Y189343D01*
X895885Y191657D01*
X896770Y193794D01*
X898406Y195430D01*
X900543Y196315D01*
X902857Y196315D01*
X904994Y195430D01*
X906630Y193794D01*
X907515Y191657D01*
X907515Y189343D01*
X906630Y187206D01*
X904994Y185570D01*
X902857Y184685D01*
X900543Y184685D01*
G37*
%LPD*%
D10*
X944200Y365500D03*
X944200Y390900D03*
X918800Y365500D03*
X918800Y390900D03*
X893400Y365500D03*
X893400Y390900D03*
X868000Y365500D03*
X868000Y390900D03*
X842600Y365500D03*
X842600Y390900D03*
X817200Y365500D03*
X817200Y390900D03*
X791800Y365500D03*
X791800Y390900D03*
X766400Y365500D03*
X766400Y390900D03*
X741000Y365500D03*
X741000Y390900D03*
X715600Y365500D03*
X715600Y390900D03*
X690200Y365500D03*
X690200Y390900D03*
X664800Y365500D03*
X664800Y390900D03*
X639400Y365500D03*
X639400Y390900D03*
X614000Y365500D03*
X614000Y390900D03*
X588600Y365500D03*
X588600Y390900D03*
X563200Y365500D03*
X563200Y390900D03*
X537800Y365500D03*
X537800Y390900D03*
X512400Y365500D03*
X512400Y390900D03*
X944200Y619500D03*
X944200Y644900D03*
X918800Y619500D03*
X918800Y644900D03*
X893400Y619500D03*
X893400Y644900D03*
X868000Y619500D03*
X868000Y644900D03*
X842600Y619500D03*
X842600Y644900D03*
X817200Y619500D03*
X817200Y644900D03*
X791800Y619500D03*
X791800Y644900D03*
X766400Y619500D03*
X766400Y644900D03*
X741000Y619500D03*
X741000Y644900D03*
X715600Y619500D03*
X715600Y644900D03*
X690200Y619500D03*
X690200Y644900D03*
X664800Y619500D03*
X664800Y644900D03*
X639400Y619500D03*
X639400Y644900D03*
X614000Y619500D03*
X614000Y644900D03*
X588600Y619500D03*
X588600Y644900D03*
X563200Y619500D03*
X563200Y644900D03*
X537800Y619500D03*
X537800Y644900D03*
X512400Y619500D03*
X512400Y644900D03*
D11*
X114700Y444500D03*
X139700Y444500D03*
X164700Y444500D03*
D12*
X354600Y215500D03*
X354600Y165500D03*
X229600Y165500D03*
X229600Y215500D03*
D11*
X315000Y680700D03*
X340400Y680700D03*
X365800Y680700D03*
X391200Y680700D03*
X416600Y680700D03*
X442000Y680700D03*
X467400Y680700D03*
X492800Y680700D03*
X518200Y680700D03*
X543600Y680700D03*
X569000Y680700D03*
X594400Y680700D03*
X619800Y680700D03*
X645200Y680700D03*
X670600Y680700D03*
X696000Y680700D03*
D13*
X260000Y675700D03*
X1010000Y675700D03*
X260000Y365700D03*
X1010000Y365700D03*
D12*
X557800Y215500D03*
X557800Y165500D03*
X432800Y165500D03*
X432800Y215500D03*
D14*
X50800Y50800D03*
X50800Y711200D03*
X1092200Y711200D03*
X1092200Y50800D03*
D15*
X1079500Y139700D03*
X901700Y190500D03*
X977900Y190500D03*
X825500Y190500D03*
X749300Y190500D03*
M02*
