G04 EAGLE Gerber RS-274X export*
G75*
%MOMM*%
%FSLAX34Y34*%
%LPD*%
%INSolderpaste Bottom*%
%IPPOS*%
%AMOC8*
5,1,8,0,0,1.08239X$1,22.5*%
G01*
%ADD10C,0.300000*%
%ADD11R,1.200000X2.300000*%


D10*
X436880Y590660D02*
X436878Y590800D01*
X436872Y590940D01*
X436862Y591080D01*
X436849Y591220D01*
X436831Y591359D01*
X436809Y591498D01*
X436784Y591635D01*
X436755Y591773D01*
X436722Y591909D01*
X436685Y592044D01*
X436644Y592178D01*
X436599Y592311D01*
X436551Y592443D01*
X436499Y592573D01*
X436444Y592702D01*
X436385Y592829D01*
X436322Y592955D01*
X436256Y593079D01*
X436187Y593200D01*
X436114Y593320D01*
X436037Y593438D01*
X435958Y593553D01*
X435875Y593667D01*
X435789Y593777D01*
X435700Y593886D01*
X435608Y593992D01*
X435513Y594095D01*
X435416Y594196D01*
X435315Y594293D01*
X435212Y594388D01*
X435106Y594480D01*
X434997Y594569D01*
X434887Y594655D01*
X434773Y594738D01*
X434658Y594817D01*
X434540Y594894D01*
X434420Y594967D01*
X434299Y595036D01*
X434175Y595102D01*
X434049Y595165D01*
X433922Y595224D01*
X433793Y595279D01*
X433663Y595331D01*
X433531Y595379D01*
X433398Y595424D01*
X433264Y595465D01*
X433129Y595502D01*
X432993Y595535D01*
X432855Y595564D01*
X432718Y595589D01*
X432579Y595611D01*
X432440Y595629D01*
X432300Y595642D01*
X432160Y595652D01*
X432020Y595658D01*
X431880Y595660D01*
X431740Y595658D01*
X431600Y595652D01*
X431460Y595642D01*
X431320Y595629D01*
X431181Y595611D01*
X431042Y595589D01*
X430905Y595564D01*
X430767Y595535D01*
X430631Y595502D01*
X430496Y595465D01*
X430362Y595424D01*
X430229Y595379D01*
X430097Y595331D01*
X429967Y595279D01*
X429838Y595224D01*
X429711Y595165D01*
X429585Y595102D01*
X429461Y595036D01*
X429340Y594967D01*
X429220Y594894D01*
X429102Y594817D01*
X428987Y594738D01*
X428873Y594655D01*
X428763Y594569D01*
X428654Y594480D01*
X428548Y594388D01*
X428445Y594293D01*
X428344Y594196D01*
X428247Y594095D01*
X428152Y593992D01*
X428060Y593886D01*
X427971Y593777D01*
X427885Y593667D01*
X427802Y593553D01*
X427723Y593438D01*
X427646Y593320D01*
X427573Y593200D01*
X427504Y593079D01*
X427438Y592955D01*
X427375Y592829D01*
X427316Y592702D01*
X427261Y592573D01*
X427209Y592443D01*
X427161Y592311D01*
X427116Y592178D01*
X427075Y592044D01*
X427038Y591909D01*
X427005Y591773D01*
X426976Y591635D01*
X426951Y591498D01*
X426929Y591359D01*
X426911Y591220D01*
X426898Y591080D01*
X426888Y590940D01*
X426882Y590800D01*
X426880Y590660D01*
X426880Y572660D01*
X426882Y572520D01*
X426888Y572380D01*
X426898Y572240D01*
X426911Y572100D01*
X426929Y571961D01*
X426951Y571822D01*
X426976Y571685D01*
X427005Y571547D01*
X427038Y571411D01*
X427075Y571276D01*
X427116Y571142D01*
X427161Y571009D01*
X427209Y570877D01*
X427261Y570747D01*
X427316Y570618D01*
X427375Y570491D01*
X427438Y570365D01*
X427504Y570241D01*
X427573Y570120D01*
X427646Y570000D01*
X427723Y569882D01*
X427802Y569767D01*
X427885Y569653D01*
X427971Y569543D01*
X428060Y569434D01*
X428152Y569328D01*
X428247Y569225D01*
X428344Y569124D01*
X428445Y569027D01*
X428548Y568932D01*
X428654Y568840D01*
X428763Y568751D01*
X428873Y568665D01*
X428987Y568582D01*
X429102Y568503D01*
X429220Y568426D01*
X429340Y568353D01*
X429461Y568284D01*
X429585Y568218D01*
X429711Y568155D01*
X429838Y568096D01*
X429967Y568041D01*
X430097Y567989D01*
X430229Y567941D01*
X430362Y567896D01*
X430496Y567855D01*
X430631Y567818D01*
X430767Y567785D01*
X430905Y567756D01*
X431042Y567731D01*
X431181Y567709D01*
X431320Y567691D01*
X431460Y567678D01*
X431600Y567668D01*
X431740Y567662D01*
X431880Y567660D01*
X432020Y567662D01*
X432160Y567668D01*
X432300Y567678D01*
X432440Y567691D01*
X432579Y567709D01*
X432718Y567731D01*
X432855Y567756D01*
X432993Y567785D01*
X433129Y567818D01*
X433264Y567855D01*
X433398Y567896D01*
X433531Y567941D01*
X433663Y567989D01*
X433793Y568041D01*
X433922Y568096D01*
X434049Y568155D01*
X434175Y568218D01*
X434299Y568284D01*
X434420Y568353D01*
X434540Y568426D01*
X434658Y568503D01*
X434773Y568582D01*
X434887Y568665D01*
X434997Y568751D01*
X435106Y568840D01*
X435212Y568932D01*
X435315Y569027D01*
X435416Y569124D01*
X435513Y569225D01*
X435608Y569328D01*
X435700Y569434D01*
X435789Y569543D01*
X435875Y569653D01*
X435958Y569767D01*
X436037Y569882D01*
X436114Y570000D01*
X436187Y570120D01*
X436256Y570241D01*
X436322Y570365D01*
X436385Y570491D01*
X436444Y570618D01*
X436499Y570747D01*
X436551Y570877D01*
X436599Y571009D01*
X436644Y571142D01*
X436685Y571276D01*
X436722Y571411D01*
X436755Y571547D01*
X436784Y571685D01*
X436809Y571822D01*
X436831Y571961D01*
X436849Y572100D01*
X436862Y572240D01*
X436872Y572380D01*
X436878Y572520D01*
X436880Y572660D01*
X436880Y590660D01*
X319880Y590660D02*
X319878Y590800D01*
X319872Y590940D01*
X319862Y591080D01*
X319849Y591220D01*
X319831Y591359D01*
X319809Y591498D01*
X319784Y591635D01*
X319755Y591773D01*
X319722Y591909D01*
X319685Y592044D01*
X319644Y592178D01*
X319599Y592311D01*
X319551Y592443D01*
X319499Y592573D01*
X319444Y592702D01*
X319385Y592829D01*
X319322Y592955D01*
X319256Y593079D01*
X319187Y593200D01*
X319114Y593320D01*
X319037Y593438D01*
X318958Y593553D01*
X318875Y593667D01*
X318789Y593777D01*
X318700Y593886D01*
X318608Y593992D01*
X318513Y594095D01*
X318416Y594196D01*
X318315Y594293D01*
X318212Y594388D01*
X318106Y594480D01*
X317997Y594569D01*
X317887Y594655D01*
X317773Y594738D01*
X317658Y594817D01*
X317540Y594894D01*
X317420Y594967D01*
X317299Y595036D01*
X317175Y595102D01*
X317049Y595165D01*
X316922Y595224D01*
X316793Y595279D01*
X316663Y595331D01*
X316531Y595379D01*
X316398Y595424D01*
X316264Y595465D01*
X316129Y595502D01*
X315993Y595535D01*
X315855Y595564D01*
X315718Y595589D01*
X315579Y595611D01*
X315440Y595629D01*
X315300Y595642D01*
X315160Y595652D01*
X315020Y595658D01*
X314880Y595660D01*
X314740Y595658D01*
X314600Y595652D01*
X314460Y595642D01*
X314320Y595629D01*
X314181Y595611D01*
X314042Y595589D01*
X313905Y595564D01*
X313767Y595535D01*
X313631Y595502D01*
X313496Y595465D01*
X313362Y595424D01*
X313229Y595379D01*
X313097Y595331D01*
X312967Y595279D01*
X312838Y595224D01*
X312711Y595165D01*
X312585Y595102D01*
X312461Y595036D01*
X312340Y594967D01*
X312220Y594894D01*
X312102Y594817D01*
X311987Y594738D01*
X311873Y594655D01*
X311763Y594569D01*
X311654Y594480D01*
X311548Y594388D01*
X311445Y594293D01*
X311344Y594196D01*
X311247Y594095D01*
X311152Y593992D01*
X311060Y593886D01*
X310971Y593777D01*
X310885Y593667D01*
X310802Y593553D01*
X310723Y593438D01*
X310646Y593320D01*
X310573Y593200D01*
X310504Y593079D01*
X310438Y592955D01*
X310375Y592829D01*
X310316Y592702D01*
X310261Y592573D01*
X310209Y592443D01*
X310161Y592311D01*
X310116Y592178D01*
X310075Y592044D01*
X310038Y591909D01*
X310005Y591773D01*
X309976Y591635D01*
X309951Y591498D01*
X309929Y591359D01*
X309911Y591220D01*
X309898Y591080D01*
X309888Y590940D01*
X309882Y590800D01*
X309880Y590660D01*
X309880Y572660D01*
X309882Y572520D01*
X309888Y572380D01*
X309898Y572240D01*
X309911Y572100D01*
X309929Y571961D01*
X309951Y571822D01*
X309976Y571685D01*
X310005Y571547D01*
X310038Y571411D01*
X310075Y571276D01*
X310116Y571142D01*
X310161Y571009D01*
X310209Y570877D01*
X310261Y570747D01*
X310316Y570618D01*
X310375Y570491D01*
X310438Y570365D01*
X310504Y570241D01*
X310573Y570120D01*
X310646Y570000D01*
X310723Y569882D01*
X310802Y569767D01*
X310885Y569653D01*
X310971Y569543D01*
X311060Y569434D01*
X311152Y569328D01*
X311247Y569225D01*
X311344Y569124D01*
X311445Y569027D01*
X311548Y568932D01*
X311654Y568840D01*
X311763Y568751D01*
X311873Y568665D01*
X311987Y568582D01*
X312102Y568503D01*
X312220Y568426D01*
X312340Y568353D01*
X312461Y568284D01*
X312585Y568218D01*
X312711Y568155D01*
X312838Y568096D01*
X312967Y568041D01*
X313097Y567989D01*
X313229Y567941D01*
X313362Y567896D01*
X313496Y567855D01*
X313631Y567818D01*
X313767Y567785D01*
X313905Y567756D01*
X314042Y567731D01*
X314181Y567709D01*
X314320Y567691D01*
X314460Y567678D01*
X314600Y567668D01*
X314740Y567662D01*
X314880Y567660D01*
X315020Y567662D01*
X315160Y567668D01*
X315300Y567678D01*
X315440Y567691D01*
X315579Y567709D01*
X315718Y567731D01*
X315855Y567756D01*
X315993Y567785D01*
X316129Y567818D01*
X316264Y567855D01*
X316398Y567896D01*
X316531Y567941D01*
X316663Y567989D01*
X316793Y568041D01*
X316922Y568096D01*
X317049Y568155D01*
X317175Y568218D01*
X317299Y568284D01*
X317420Y568353D01*
X317540Y568426D01*
X317658Y568503D01*
X317773Y568582D01*
X317887Y568665D01*
X317997Y568751D01*
X318106Y568840D01*
X318212Y568932D01*
X318315Y569027D01*
X318416Y569124D01*
X318513Y569225D01*
X318608Y569328D01*
X318700Y569434D01*
X318789Y569543D01*
X318875Y569653D01*
X318958Y569767D01*
X319037Y569882D01*
X319114Y570000D01*
X319187Y570120D01*
X319256Y570241D01*
X319322Y570365D01*
X319385Y570491D01*
X319444Y570618D01*
X319499Y570747D01*
X319551Y570877D01*
X319599Y571009D01*
X319644Y571142D01*
X319685Y571276D01*
X319722Y571411D01*
X319755Y571547D01*
X319784Y571685D01*
X319809Y571822D01*
X319831Y571961D01*
X319849Y572100D01*
X319862Y572240D01*
X319872Y572380D01*
X319878Y572520D01*
X319880Y572660D01*
X319880Y590660D01*
D11*
X338380Y609160D03*
X363380Y609160D03*
X383380Y609160D03*
X408380Y609160D03*
M02*
