G04 EAGLE Gerber RS-274X export*
G75*
%MOMM*%
%FSLAX34Y34*%
%LPD*%
%INSoldermask Top*%
%IPPOS*%
%AMOC8*
5,1,8,0,0,1.08239X$1,22.5*%
G01*
%ADD10R,1.676400X1.676400*%
%ADD11P,1.814519X8X202.500000*%
%ADD12C,1.552400*%
%ADD13C,2.652400*%
%ADD14C,2.112400*%
%ADD15R,0.952400X0.952400*%
%ADD16R,1.552400X1.552400*%
%ADD17C,5.152400*%
%ADD18R,1.183641X1.102359*%
%ADD19C,0.609600*%
%ADD20C,1.168400*%
%ADD21C,4.597400*%
%ADD22R,1.295400X1.422400*%
%ADD23C,1.252400*%
%ADD24C,0.852400*%

G36*
X316246Y565790D02*
X316246Y565790D01*
X316246Y565791D01*
X316247Y565790D01*
X317560Y566189D01*
X317561Y566189D01*
X318771Y566836D01*
X318771Y566837D01*
X318772Y566836D01*
X319832Y567707D01*
X319833Y567708D01*
X320704Y568768D01*
X320704Y568769D01*
X321351Y569979D01*
X321351Y569980D01*
X321750Y571293D01*
X321749Y571294D01*
X321750Y571294D01*
X321884Y572660D01*
X321884Y590660D01*
X321750Y592026D01*
X321749Y592026D01*
X321750Y592027D01*
X321351Y593340D01*
X321351Y593341D01*
X320704Y594551D01*
X320703Y594551D01*
X320704Y594552D01*
X319833Y595612D01*
X319832Y595613D01*
X318772Y596484D01*
X318771Y596484D01*
X317561Y597131D01*
X317560Y597131D01*
X316247Y597530D01*
X316246Y597529D01*
X316246Y597530D01*
X314880Y597664D01*
X313514Y597530D01*
X313514Y597529D01*
X313513Y597530D01*
X312200Y597131D01*
X312199Y597131D01*
X310989Y596484D01*
X310989Y596483D01*
X310988Y596484D01*
X309928Y595613D01*
X309927Y595612D01*
X309056Y594552D01*
X309056Y594551D01*
X308409Y593341D01*
X308409Y593340D01*
X308010Y592027D01*
X308011Y592026D01*
X308010Y592026D01*
X307876Y590660D01*
X307876Y572660D01*
X308010Y571294D01*
X308011Y571294D01*
X308010Y571293D01*
X308409Y569980D01*
X308409Y569979D01*
X309056Y568769D01*
X309057Y568769D01*
X309056Y568768D01*
X309927Y567708D01*
X309928Y567707D01*
X310988Y566836D01*
X310989Y566836D01*
X312199Y566189D01*
X312200Y566189D01*
X313513Y565790D01*
X313514Y565791D01*
X313514Y565790D01*
X314880Y565656D01*
X316246Y565790D01*
G37*
G36*
X433246Y565790D02*
X433246Y565790D01*
X433246Y565791D01*
X433247Y565790D01*
X434560Y566189D01*
X434561Y566189D01*
X435771Y566836D01*
X435771Y566837D01*
X435772Y566836D01*
X436832Y567707D01*
X436833Y567708D01*
X437704Y568768D01*
X437704Y568769D01*
X438351Y569979D01*
X438351Y569980D01*
X438750Y571293D01*
X438749Y571294D01*
X438750Y571294D01*
X438884Y572660D01*
X438884Y590660D01*
X438750Y592026D01*
X438749Y592026D01*
X438750Y592027D01*
X438351Y593340D01*
X438351Y593341D01*
X437704Y594551D01*
X437703Y594551D01*
X437704Y594552D01*
X436833Y595612D01*
X436832Y595613D01*
X435772Y596484D01*
X435771Y596484D01*
X434561Y597131D01*
X434560Y597131D01*
X433247Y597530D01*
X433246Y597529D01*
X433246Y597530D01*
X431880Y597664D01*
X430514Y597530D01*
X430514Y597529D01*
X430513Y597530D01*
X429200Y597131D01*
X429199Y597131D01*
X427989Y596484D01*
X427989Y596483D01*
X427988Y596484D01*
X426928Y595613D01*
X426927Y595612D01*
X426056Y594552D01*
X426056Y594551D01*
X425409Y593341D01*
X425409Y593340D01*
X425010Y592027D01*
X425011Y592026D01*
X425010Y592026D01*
X424876Y590660D01*
X424876Y572660D01*
X425010Y571294D01*
X425011Y571294D01*
X425010Y571293D01*
X425409Y569980D01*
X425409Y569979D01*
X426056Y568769D01*
X426057Y568769D01*
X426056Y568768D01*
X426927Y567708D01*
X426928Y567707D01*
X427988Y566836D01*
X427989Y566836D01*
X429199Y566189D01*
X429200Y566189D01*
X430513Y565790D01*
X430514Y565791D01*
X430514Y565790D01*
X431880Y565656D01*
X433246Y565790D01*
G37*
D10*
X944200Y365500D03*
D11*
X944200Y390900D03*
X918800Y365500D03*
X918800Y390900D03*
X893400Y365500D03*
X893400Y390900D03*
X868000Y365500D03*
X868000Y390900D03*
X842600Y365500D03*
X842600Y390900D03*
X817200Y365500D03*
X817200Y390900D03*
X791800Y365500D03*
X791800Y390900D03*
X766400Y365500D03*
X766400Y390900D03*
X741000Y365500D03*
X741000Y390900D03*
X715600Y365500D03*
X715600Y390900D03*
X690200Y365500D03*
X690200Y390900D03*
X664800Y365500D03*
X664800Y390900D03*
X639400Y365500D03*
X639400Y390900D03*
X614000Y365500D03*
X614000Y390900D03*
X588600Y365500D03*
X588600Y390900D03*
X563200Y365500D03*
X563200Y390900D03*
X537800Y365500D03*
X537800Y390900D03*
X512400Y365500D03*
X512400Y390900D03*
D10*
X944200Y619500D03*
D11*
X944200Y644900D03*
X918800Y619500D03*
X918800Y644900D03*
X893400Y619500D03*
X893400Y644900D03*
X868000Y619500D03*
X868000Y644900D03*
X842600Y619500D03*
X842600Y644900D03*
X817200Y619500D03*
X817200Y644900D03*
X791800Y619500D03*
X791800Y644900D03*
X766400Y619500D03*
X766400Y644900D03*
X741000Y619500D03*
X741000Y644900D03*
X715600Y619500D03*
X715600Y644900D03*
X690200Y619500D03*
X690200Y644900D03*
X664800Y619500D03*
X664800Y644900D03*
X639400Y619500D03*
X639400Y644900D03*
X614000Y619500D03*
X614000Y644900D03*
X588600Y619500D03*
X588600Y644900D03*
X563200Y619500D03*
X563200Y644900D03*
X537800Y619500D03*
X537800Y644900D03*
X512400Y619500D03*
X512400Y644900D03*
D12*
X114700Y444500D03*
X139700Y444500D03*
X164700Y444500D03*
D13*
X89700Y514500D03*
X189700Y514500D03*
D14*
X354600Y215500D03*
X354600Y165500D03*
X229600Y165500D03*
X229600Y215500D03*
D15*
X716400Y190500D03*
X731400Y190500D03*
X792600Y190500D03*
X807600Y190500D03*
X868800Y190500D03*
X883800Y190500D03*
X945000Y190500D03*
X960000Y190500D03*
D16*
X315000Y680700D03*
D12*
X340400Y680700D03*
X365800Y680700D03*
X391200Y680700D03*
X416600Y680700D03*
X442000Y680700D03*
X467400Y680700D03*
X492800Y680700D03*
X518200Y680700D03*
X543600Y680700D03*
X569000Y680700D03*
X594400Y680700D03*
X619800Y680700D03*
X645200Y680700D03*
X670600Y680700D03*
X696000Y680700D03*
D17*
X260000Y675700D03*
X1010000Y675700D03*
X260000Y365700D03*
X1010000Y365700D03*
D18*
X203200Y198501D03*
X203200Y182499D03*
X596900Y198501D03*
X596900Y182499D03*
D14*
X557800Y215500D03*
X557800Y165500D03*
X432800Y165500D03*
X432800Y215500D03*
D19*
X81280Y88900D02*
X81282Y89087D01*
X81289Y89274D01*
X81301Y89461D01*
X81317Y89647D01*
X81337Y89833D01*
X81362Y90018D01*
X81392Y90203D01*
X81426Y90387D01*
X81465Y90570D01*
X81508Y90752D01*
X81556Y90932D01*
X81608Y91112D01*
X81665Y91290D01*
X81725Y91467D01*
X81791Y91642D01*
X81860Y91816D01*
X81934Y91988D01*
X82012Y92158D01*
X82094Y92326D01*
X82180Y92492D01*
X82270Y92656D01*
X82364Y92817D01*
X82462Y92977D01*
X82564Y93133D01*
X82670Y93288D01*
X82780Y93439D01*
X82893Y93588D01*
X83010Y93734D01*
X83130Y93877D01*
X83254Y94017D01*
X83381Y94154D01*
X83512Y94288D01*
X83646Y94419D01*
X83783Y94546D01*
X83923Y94670D01*
X84066Y94790D01*
X84212Y94907D01*
X84361Y95020D01*
X84512Y95130D01*
X84667Y95236D01*
X84823Y95338D01*
X84983Y95436D01*
X85144Y95530D01*
X85308Y95620D01*
X85474Y95706D01*
X85642Y95788D01*
X85812Y95866D01*
X85984Y95940D01*
X86158Y96009D01*
X86333Y96075D01*
X86510Y96135D01*
X86688Y96192D01*
X86868Y96244D01*
X87048Y96292D01*
X87230Y96335D01*
X87413Y96374D01*
X87597Y96408D01*
X87782Y96438D01*
X87967Y96463D01*
X88153Y96483D01*
X88339Y96499D01*
X88526Y96511D01*
X88713Y96518D01*
X88900Y96520D01*
X89087Y96518D01*
X89274Y96511D01*
X89461Y96499D01*
X89647Y96483D01*
X89833Y96463D01*
X90018Y96438D01*
X90203Y96408D01*
X90387Y96374D01*
X90570Y96335D01*
X90752Y96292D01*
X90932Y96244D01*
X91112Y96192D01*
X91290Y96135D01*
X91467Y96075D01*
X91642Y96009D01*
X91816Y95940D01*
X91988Y95866D01*
X92158Y95788D01*
X92326Y95706D01*
X92492Y95620D01*
X92656Y95530D01*
X92817Y95436D01*
X92977Y95338D01*
X93133Y95236D01*
X93288Y95130D01*
X93439Y95020D01*
X93588Y94907D01*
X93734Y94790D01*
X93877Y94670D01*
X94017Y94546D01*
X94154Y94419D01*
X94288Y94288D01*
X94419Y94154D01*
X94546Y94017D01*
X94670Y93877D01*
X94790Y93734D01*
X94907Y93588D01*
X95020Y93439D01*
X95130Y93288D01*
X95236Y93133D01*
X95338Y92977D01*
X95436Y92817D01*
X95530Y92656D01*
X95620Y92492D01*
X95706Y92326D01*
X95788Y92158D01*
X95866Y91988D01*
X95940Y91816D01*
X96009Y91642D01*
X96075Y91467D01*
X96135Y91290D01*
X96192Y91112D01*
X96244Y90932D01*
X96292Y90752D01*
X96335Y90570D01*
X96374Y90387D01*
X96408Y90203D01*
X96438Y90018D01*
X96463Y89833D01*
X96483Y89647D01*
X96499Y89461D01*
X96511Y89274D01*
X96518Y89087D01*
X96520Y88900D01*
X96518Y88713D01*
X96511Y88526D01*
X96499Y88339D01*
X96483Y88153D01*
X96463Y87967D01*
X96438Y87782D01*
X96408Y87597D01*
X96374Y87413D01*
X96335Y87230D01*
X96292Y87048D01*
X96244Y86868D01*
X96192Y86688D01*
X96135Y86510D01*
X96075Y86333D01*
X96009Y86158D01*
X95940Y85984D01*
X95866Y85812D01*
X95788Y85642D01*
X95706Y85474D01*
X95620Y85308D01*
X95530Y85144D01*
X95436Y84983D01*
X95338Y84823D01*
X95236Y84667D01*
X95130Y84512D01*
X95020Y84361D01*
X94907Y84212D01*
X94790Y84066D01*
X94670Y83923D01*
X94546Y83783D01*
X94419Y83646D01*
X94288Y83512D01*
X94154Y83381D01*
X94017Y83254D01*
X93877Y83130D01*
X93734Y83010D01*
X93588Y82893D01*
X93439Y82780D01*
X93288Y82670D01*
X93133Y82564D01*
X92977Y82462D01*
X92817Y82364D01*
X92656Y82270D01*
X92492Y82180D01*
X92326Y82094D01*
X92158Y82012D01*
X91988Y81934D01*
X91816Y81860D01*
X91642Y81791D01*
X91467Y81725D01*
X91290Y81665D01*
X91112Y81608D01*
X90932Y81556D01*
X90752Y81508D01*
X90570Y81465D01*
X90387Y81426D01*
X90203Y81392D01*
X90018Y81362D01*
X89833Y81337D01*
X89647Y81317D01*
X89461Y81301D01*
X89274Y81289D01*
X89087Y81282D01*
X88900Y81280D01*
X88713Y81282D01*
X88526Y81289D01*
X88339Y81301D01*
X88153Y81317D01*
X87967Y81337D01*
X87782Y81362D01*
X87597Y81392D01*
X87413Y81426D01*
X87230Y81465D01*
X87048Y81508D01*
X86868Y81556D01*
X86688Y81608D01*
X86510Y81665D01*
X86333Y81725D01*
X86158Y81791D01*
X85984Y81860D01*
X85812Y81934D01*
X85642Y82012D01*
X85474Y82094D01*
X85308Y82180D01*
X85144Y82270D01*
X84983Y82364D01*
X84823Y82462D01*
X84667Y82564D01*
X84512Y82670D01*
X84361Y82780D01*
X84212Y82893D01*
X84066Y83010D01*
X83923Y83130D01*
X83783Y83254D01*
X83646Y83381D01*
X83512Y83512D01*
X83381Y83646D01*
X83254Y83783D01*
X83130Y83923D01*
X83010Y84066D01*
X82893Y84212D01*
X82780Y84361D01*
X82670Y84512D01*
X82564Y84667D01*
X82462Y84823D01*
X82364Y84983D01*
X82270Y85144D01*
X82180Y85308D01*
X82094Y85474D01*
X82012Y85642D01*
X81934Y85812D01*
X81860Y85984D01*
X81791Y86158D01*
X81725Y86333D01*
X81665Y86510D01*
X81608Y86688D01*
X81556Y86868D01*
X81508Y87048D01*
X81465Y87230D01*
X81426Y87413D01*
X81392Y87597D01*
X81362Y87782D01*
X81337Y87967D01*
X81317Y88153D01*
X81301Y88339D01*
X81289Y88526D01*
X81282Y88713D01*
X81280Y88900D01*
D20*
X88900Y88900D03*
D19*
X1046480Y88900D02*
X1046482Y89087D01*
X1046489Y89274D01*
X1046501Y89461D01*
X1046517Y89647D01*
X1046537Y89833D01*
X1046562Y90018D01*
X1046592Y90203D01*
X1046626Y90387D01*
X1046665Y90570D01*
X1046708Y90752D01*
X1046756Y90932D01*
X1046808Y91112D01*
X1046865Y91290D01*
X1046925Y91467D01*
X1046991Y91642D01*
X1047060Y91816D01*
X1047134Y91988D01*
X1047212Y92158D01*
X1047294Y92326D01*
X1047380Y92492D01*
X1047470Y92656D01*
X1047564Y92817D01*
X1047662Y92977D01*
X1047764Y93133D01*
X1047870Y93288D01*
X1047980Y93439D01*
X1048093Y93588D01*
X1048210Y93734D01*
X1048330Y93877D01*
X1048454Y94017D01*
X1048581Y94154D01*
X1048712Y94288D01*
X1048846Y94419D01*
X1048983Y94546D01*
X1049123Y94670D01*
X1049266Y94790D01*
X1049412Y94907D01*
X1049561Y95020D01*
X1049712Y95130D01*
X1049867Y95236D01*
X1050023Y95338D01*
X1050183Y95436D01*
X1050344Y95530D01*
X1050508Y95620D01*
X1050674Y95706D01*
X1050842Y95788D01*
X1051012Y95866D01*
X1051184Y95940D01*
X1051358Y96009D01*
X1051533Y96075D01*
X1051710Y96135D01*
X1051888Y96192D01*
X1052068Y96244D01*
X1052248Y96292D01*
X1052430Y96335D01*
X1052613Y96374D01*
X1052797Y96408D01*
X1052982Y96438D01*
X1053167Y96463D01*
X1053353Y96483D01*
X1053539Y96499D01*
X1053726Y96511D01*
X1053913Y96518D01*
X1054100Y96520D01*
X1054287Y96518D01*
X1054474Y96511D01*
X1054661Y96499D01*
X1054847Y96483D01*
X1055033Y96463D01*
X1055218Y96438D01*
X1055403Y96408D01*
X1055587Y96374D01*
X1055770Y96335D01*
X1055952Y96292D01*
X1056132Y96244D01*
X1056312Y96192D01*
X1056490Y96135D01*
X1056667Y96075D01*
X1056842Y96009D01*
X1057016Y95940D01*
X1057188Y95866D01*
X1057358Y95788D01*
X1057526Y95706D01*
X1057692Y95620D01*
X1057856Y95530D01*
X1058017Y95436D01*
X1058177Y95338D01*
X1058333Y95236D01*
X1058488Y95130D01*
X1058639Y95020D01*
X1058788Y94907D01*
X1058934Y94790D01*
X1059077Y94670D01*
X1059217Y94546D01*
X1059354Y94419D01*
X1059488Y94288D01*
X1059619Y94154D01*
X1059746Y94017D01*
X1059870Y93877D01*
X1059990Y93734D01*
X1060107Y93588D01*
X1060220Y93439D01*
X1060330Y93288D01*
X1060436Y93133D01*
X1060538Y92977D01*
X1060636Y92817D01*
X1060730Y92656D01*
X1060820Y92492D01*
X1060906Y92326D01*
X1060988Y92158D01*
X1061066Y91988D01*
X1061140Y91816D01*
X1061209Y91642D01*
X1061275Y91467D01*
X1061335Y91290D01*
X1061392Y91112D01*
X1061444Y90932D01*
X1061492Y90752D01*
X1061535Y90570D01*
X1061574Y90387D01*
X1061608Y90203D01*
X1061638Y90018D01*
X1061663Y89833D01*
X1061683Y89647D01*
X1061699Y89461D01*
X1061711Y89274D01*
X1061718Y89087D01*
X1061720Y88900D01*
X1061718Y88713D01*
X1061711Y88526D01*
X1061699Y88339D01*
X1061683Y88153D01*
X1061663Y87967D01*
X1061638Y87782D01*
X1061608Y87597D01*
X1061574Y87413D01*
X1061535Y87230D01*
X1061492Y87048D01*
X1061444Y86868D01*
X1061392Y86688D01*
X1061335Y86510D01*
X1061275Y86333D01*
X1061209Y86158D01*
X1061140Y85984D01*
X1061066Y85812D01*
X1060988Y85642D01*
X1060906Y85474D01*
X1060820Y85308D01*
X1060730Y85144D01*
X1060636Y84983D01*
X1060538Y84823D01*
X1060436Y84667D01*
X1060330Y84512D01*
X1060220Y84361D01*
X1060107Y84212D01*
X1059990Y84066D01*
X1059870Y83923D01*
X1059746Y83783D01*
X1059619Y83646D01*
X1059488Y83512D01*
X1059354Y83381D01*
X1059217Y83254D01*
X1059077Y83130D01*
X1058934Y83010D01*
X1058788Y82893D01*
X1058639Y82780D01*
X1058488Y82670D01*
X1058333Y82564D01*
X1058177Y82462D01*
X1058017Y82364D01*
X1057856Y82270D01*
X1057692Y82180D01*
X1057526Y82094D01*
X1057358Y82012D01*
X1057188Y81934D01*
X1057016Y81860D01*
X1056842Y81791D01*
X1056667Y81725D01*
X1056490Y81665D01*
X1056312Y81608D01*
X1056132Y81556D01*
X1055952Y81508D01*
X1055770Y81465D01*
X1055587Y81426D01*
X1055403Y81392D01*
X1055218Y81362D01*
X1055033Y81337D01*
X1054847Y81317D01*
X1054661Y81301D01*
X1054474Y81289D01*
X1054287Y81282D01*
X1054100Y81280D01*
X1053913Y81282D01*
X1053726Y81289D01*
X1053539Y81301D01*
X1053353Y81317D01*
X1053167Y81337D01*
X1052982Y81362D01*
X1052797Y81392D01*
X1052613Y81426D01*
X1052430Y81465D01*
X1052248Y81508D01*
X1052068Y81556D01*
X1051888Y81608D01*
X1051710Y81665D01*
X1051533Y81725D01*
X1051358Y81791D01*
X1051184Y81860D01*
X1051012Y81934D01*
X1050842Y82012D01*
X1050674Y82094D01*
X1050508Y82180D01*
X1050344Y82270D01*
X1050183Y82364D01*
X1050023Y82462D01*
X1049867Y82564D01*
X1049712Y82670D01*
X1049561Y82780D01*
X1049412Y82893D01*
X1049266Y83010D01*
X1049123Y83130D01*
X1048983Y83254D01*
X1048846Y83381D01*
X1048712Y83512D01*
X1048581Y83646D01*
X1048454Y83783D01*
X1048330Y83923D01*
X1048210Y84066D01*
X1048093Y84212D01*
X1047980Y84361D01*
X1047870Y84512D01*
X1047764Y84667D01*
X1047662Y84823D01*
X1047564Y84983D01*
X1047470Y85144D01*
X1047380Y85308D01*
X1047294Y85474D01*
X1047212Y85642D01*
X1047134Y85812D01*
X1047060Y85984D01*
X1046991Y86158D01*
X1046925Y86333D01*
X1046865Y86510D01*
X1046808Y86688D01*
X1046756Y86868D01*
X1046708Y87048D01*
X1046665Y87230D01*
X1046626Y87413D01*
X1046592Y87597D01*
X1046562Y87782D01*
X1046537Y87967D01*
X1046517Y88153D01*
X1046501Y88339D01*
X1046489Y88526D01*
X1046482Y88713D01*
X1046480Y88900D01*
D20*
X1054100Y88900D03*
D19*
X1046480Y673100D02*
X1046482Y673287D01*
X1046489Y673474D01*
X1046501Y673661D01*
X1046517Y673847D01*
X1046537Y674033D01*
X1046562Y674218D01*
X1046592Y674403D01*
X1046626Y674587D01*
X1046665Y674770D01*
X1046708Y674952D01*
X1046756Y675132D01*
X1046808Y675312D01*
X1046865Y675490D01*
X1046925Y675667D01*
X1046991Y675842D01*
X1047060Y676016D01*
X1047134Y676188D01*
X1047212Y676358D01*
X1047294Y676526D01*
X1047380Y676692D01*
X1047470Y676856D01*
X1047564Y677017D01*
X1047662Y677177D01*
X1047764Y677333D01*
X1047870Y677488D01*
X1047980Y677639D01*
X1048093Y677788D01*
X1048210Y677934D01*
X1048330Y678077D01*
X1048454Y678217D01*
X1048581Y678354D01*
X1048712Y678488D01*
X1048846Y678619D01*
X1048983Y678746D01*
X1049123Y678870D01*
X1049266Y678990D01*
X1049412Y679107D01*
X1049561Y679220D01*
X1049712Y679330D01*
X1049867Y679436D01*
X1050023Y679538D01*
X1050183Y679636D01*
X1050344Y679730D01*
X1050508Y679820D01*
X1050674Y679906D01*
X1050842Y679988D01*
X1051012Y680066D01*
X1051184Y680140D01*
X1051358Y680209D01*
X1051533Y680275D01*
X1051710Y680335D01*
X1051888Y680392D01*
X1052068Y680444D01*
X1052248Y680492D01*
X1052430Y680535D01*
X1052613Y680574D01*
X1052797Y680608D01*
X1052982Y680638D01*
X1053167Y680663D01*
X1053353Y680683D01*
X1053539Y680699D01*
X1053726Y680711D01*
X1053913Y680718D01*
X1054100Y680720D01*
X1054287Y680718D01*
X1054474Y680711D01*
X1054661Y680699D01*
X1054847Y680683D01*
X1055033Y680663D01*
X1055218Y680638D01*
X1055403Y680608D01*
X1055587Y680574D01*
X1055770Y680535D01*
X1055952Y680492D01*
X1056132Y680444D01*
X1056312Y680392D01*
X1056490Y680335D01*
X1056667Y680275D01*
X1056842Y680209D01*
X1057016Y680140D01*
X1057188Y680066D01*
X1057358Y679988D01*
X1057526Y679906D01*
X1057692Y679820D01*
X1057856Y679730D01*
X1058017Y679636D01*
X1058177Y679538D01*
X1058333Y679436D01*
X1058488Y679330D01*
X1058639Y679220D01*
X1058788Y679107D01*
X1058934Y678990D01*
X1059077Y678870D01*
X1059217Y678746D01*
X1059354Y678619D01*
X1059488Y678488D01*
X1059619Y678354D01*
X1059746Y678217D01*
X1059870Y678077D01*
X1059990Y677934D01*
X1060107Y677788D01*
X1060220Y677639D01*
X1060330Y677488D01*
X1060436Y677333D01*
X1060538Y677177D01*
X1060636Y677017D01*
X1060730Y676856D01*
X1060820Y676692D01*
X1060906Y676526D01*
X1060988Y676358D01*
X1061066Y676188D01*
X1061140Y676016D01*
X1061209Y675842D01*
X1061275Y675667D01*
X1061335Y675490D01*
X1061392Y675312D01*
X1061444Y675132D01*
X1061492Y674952D01*
X1061535Y674770D01*
X1061574Y674587D01*
X1061608Y674403D01*
X1061638Y674218D01*
X1061663Y674033D01*
X1061683Y673847D01*
X1061699Y673661D01*
X1061711Y673474D01*
X1061718Y673287D01*
X1061720Y673100D01*
X1061718Y672913D01*
X1061711Y672726D01*
X1061699Y672539D01*
X1061683Y672353D01*
X1061663Y672167D01*
X1061638Y671982D01*
X1061608Y671797D01*
X1061574Y671613D01*
X1061535Y671430D01*
X1061492Y671248D01*
X1061444Y671068D01*
X1061392Y670888D01*
X1061335Y670710D01*
X1061275Y670533D01*
X1061209Y670358D01*
X1061140Y670184D01*
X1061066Y670012D01*
X1060988Y669842D01*
X1060906Y669674D01*
X1060820Y669508D01*
X1060730Y669344D01*
X1060636Y669183D01*
X1060538Y669023D01*
X1060436Y668867D01*
X1060330Y668712D01*
X1060220Y668561D01*
X1060107Y668412D01*
X1059990Y668266D01*
X1059870Y668123D01*
X1059746Y667983D01*
X1059619Y667846D01*
X1059488Y667712D01*
X1059354Y667581D01*
X1059217Y667454D01*
X1059077Y667330D01*
X1058934Y667210D01*
X1058788Y667093D01*
X1058639Y666980D01*
X1058488Y666870D01*
X1058333Y666764D01*
X1058177Y666662D01*
X1058017Y666564D01*
X1057856Y666470D01*
X1057692Y666380D01*
X1057526Y666294D01*
X1057358Y666212D01*
X1057188Y666134D01*
X1057016Y666060D01*
X1056842Y665991D01*
X1056667Y665925D01*
X1056490Y665865D01*
X1056312Y665808D01*
X1056132Y665756D01*
X1055952Y665708D01*
X1055770Y665665D01*
X1055587Y665626D01*
X1055403Y665592D01*
X1055218Y665562D01*
X1055033Y665537D01*
X1054847Y665517D01*
X1054661Y665501D01*
X1054474Y665489D01*
X1054287Y665482D01*
X1054100Y665480D01*
X1053913Y665482D01*
X1053726Y665489D01*
X1053539Y665501D01*
X1053353Y665517D01*
X1053167Y665537D01*
X1052982Y665562D01*
X1052797Y665592D01*
X1052613Y665626D01*
X1052430Y665665D01*
X1052248Y665708D01*
X1052068Y665756D01*
X1051888Y665808D01*
X1051710Y665865D01*
X1051533Y665925D01*
X1051358Y665991D01*
X1051184Y666060D01*
X1051012Y666134D01*
X1050842Y666212D01*
X1050674Y666294D01*
X1050508Y666380D01*
X1050344Y666470D01*
X1050183Y666564D01*
X1050023Y666662D01*
X1049867Y666764D01*
X1049712Y666870D01*
X1049561Y666980D01*
X1049412Y667093D01*
X1049266Y667210D01*
X1049123Y667330D01*
X1048983Y667454D01*
X1048846Y667581D01*
X1048712Y667712D01*
X1048581Y667846D01*
X1048454Y667983D01*
X1048330Y668123D01*
X1048210Y668266D01*
X1048093Y668412D01*
X1047980Y668561D01*
X1047870Y668712D01*
X1047764Y668867D01*
X1047662Y669023D01*
X1047564Y669183D01*
X1047470Y669344D01*
X1047380Y669508D01*
X1047294Y669674D01*
X1047212Y669842D01*
X1047134Y670012D01*
X1047060Y670184D01*
X1046991Y670358D01*
X1046925Y670533D01*
X1046865Y670710D01*
X1046808Y670888D01*
X1046756Y671068D01*
X1046708Y671248D01*
X1046665Y671430D01*
X1046626Y671613D01*
X1046592Y671797D01*
X1046562Y671982D01*
X1046537Y672167D01*
X1046517Y672353D01*
X1046501Y672539D01*
X1046489Y672726D01*
X1046482Y672913D01*
X1046480Y673100D01*
D20*
X1054100Y673100D03*
D21*
X50800Y50800D03*
X50800Y711200D03*
X1092200Y711200D03*
X1092200Y50800D03*
D22*
X1102360Y139700D03*
X1120140Y139700D03*
D23*
X395880Y581660D03*
X350880Y581660D03*
D24*
X431880Y581660D03*
X314880Y581660D03*
M02*
